<svg width="120" height="120" viewBox="0 0 120 120" fill="none" xmlns="http://www.w3.org/2000/svg">
<g clip-path="url(#clip0_735_2)">
<mask id="mask0_735_2" style="mask-type:luminance" maskUnits="userSpaceOnUse" x="25" y="25" width="70" height="70">
<path d="M95 25H25V95H95V25Z" fill="white"/>
</mask>
<g mask="url(#mask0_735_2)">
<mask id="mask1_735_2" style="mask-type:luminance" maskUnits="userSpaceOnUse" x="25" y="25" width="70" height="70">
<path d="M95 25H25V95H95V25Z" fill="white"/>
</mask>
<g mask="url(#mask1_735_2)">
<mask id="mask2_735_2" style="mask-type:luminance" maskUnits="userSpaceOnUse" x="25" y="25" width="70" height="70">
<path d="M95 25H25V95H95V25Z" fill="white"/>
</mask>
<g mask="url(#mask2_735_2)">
<path opacity="0.6" d="M32.7778 25H95.0001V84.1111H32.7778V25Z" fill="#FFE599"/>
<path opacity="0.8" d="M28.8887 34.3335H89.5553V90.3335H28.8887V34.3335Z" fill="#FFE599"/>
<path d="M25.4534 85.7001H25V29.3501H85.2526V29.8001H25.4534V85.7001ZM95 95.0001H34.7474V94.5501H94.5013V38.6001H95V95.0001Z" fill="#F9BF4B"/>
</g>
<mask id="mask3_735_2" style="mask-type:luminance" maskUnits="userSpaceOnUse" x="35" y="38" width="50" height="45">
<path d="M84.8891 38.2222H35.1113V82.5555H84.8891V38.2222Z" fill="white"/>
</mask>
<g mask="url(#mask3_735_2)">
<path d="M84.8891 45.4921L82.9076 47.1552H81.1195L84.8891 43.9716V45.4921ZM48.7882 69.2981L57.1972 62.3131L57.6805 63.501L49.3198 70.5335L48.7882 69.2981ZM49.4164 70.8662L57.8255 63.8812L58.2121 65.1166L49.803 72.1016L49.4164 70.8662ZM82.0861 41.4531L81.7478 42.2134L81.4579 42.0709L80.8296 42.4985L81.2162 42.7362L84.8891 39.695V41.2631L80.8296 44.6843L80.4912 45.4921L84.8891 41.7858V43.3539L80.3946 47.1552H78.7031L79.5247 47.8204L79.2347 48.7233L77.35 47.1552H76.0935L78.8964 49.436L78.6065 50.3864L74.7403 47.1552H73.5804L78.2682 51.0991L77.9782 51.8594L72.1789 47.1552H71.019L77.6399 52.6671L77.35 53.5225L69.6658 47.1552H68.216L68.9408 46.5375L69.2309 45.7297L67.5877 47.1552H65.7029L70.1974 43.3539L70.5357 42.5936L65.0747 47.1552H63.6731V46.68L71.4539 40.1227L71.7923 39.4099L63.6731 46.0623V44.4942L71.164 38.2695H73.242L73.4354 38.4596L73.7736 38.2695H75.7551L76.0935 38.4596L76.2867 38.2695H78.2682L78.6065 38.4596L78.7998 38.2695H80.9263L81.2162 38.4596L81.4579 38.2695H83.3427L83.0043 39.0773L82.7144 38.7922L82.0861 39.2673L82.4727 39.505L83.9709 38.2695H84.8891V39.0773L82.0861 41.4531ZM69.2309 45.6346L69.5691 46.0148L70.1974 45.4921L69.9075 45.207L69.2309 45.6346ZM70.6324 46.68L70.9223 47.0601L71.4539 46.5375L71.164 46.2524L70.6324 46.68ZM70.6324 44.6843L70.9223 44.9694L71.4539 44.3992L71.164 44.1617L70.6324 44.6843ZM70.6324 42.4985L70.9223 42.7362L71.4539 42.2134L71.164 42.0709L70.6324 42.4985ZM71.8889 45.6346L72.1789 46.0148L72.8071 45.4921L72.5172 45.207L71.8889 45.6346ZM71.8889 43.5439L72.1789 43.829L72.8071 43.3539L72.5172 43.1163L71.8889 43.5439ZM71.8889 41.4531L72.1789 41.6907L72.8071 41.1681L72.5172 40.9305L71.8889 41.4531ZM71.8889 39.2673L72.1789 39.505L72.8071 39.0773L72.5172 38.7922L71.8889 39.2673ZM73.1454 46.68L73.4354 47.0601L74.0637 46.5375L73.7736 46.2524L73.1454 46.68ZM73.1454 44.6843L73.4354 44.9694L74.0637 44.3992L73.7736 44.1617L73.1454 44.6843ZM73.1454 42.4985L73.4354 42.7362L74.0637 42.2134L73.7736 42.0709L73.1454 42.4985ZM73.1454 40.4078L73.4354 40.6454L74.0637 40.1227L73.7736 39.8851L73.1454 40.4078ZM74.4019 45.6346L74.7403 46.0148L75.3685 45.4921L75.0302 45.207L74.4019 45.6346ZM74.4019 43.5439L74.7403 43.829L75.3685 43.3539L75.0302 43.1163L74.4019 43.5439ZM74.4019 41.4531L74.7403 41.6907L75.3685 41.1681L75.0302 40.9305L74.4019 41.4531ZM74.4019 39.2673L74.7403 39.505L75.3685 39.0773L75.0302 38.7922L74.4019 39.2673ZM75.7551 46.68L76.0935 47.0601L76.6251 46.5375L76.2867 46.2524L75.7551 46.68ZM75.7551 44.6843L76.0935 44.9694L76.6251 44.3992L76.2867 44.1617L75.7551 44.6843ZM75.7551 42.4985L76.0935 42.7362L76.6251 42.2134L76.2867 42.0709L75.7551 42.4985ZM75.7551 40.4078L76.0935 40.6454L76.6251 40.1227L76.2867 39.8851L75.7551 40.4078ZM77.0116 45.6346L77.35 46.0148L77.9782 45.4921L77.5432 45.207L77.0116 45.6346ZM77.0116 43.5439L77.35 43.829L77.9782 43.3539L77.5432 43.1163L77.0116 43.5439ZM77.0116 41.4531L77.35 41.6907L77.9782 41.1681L77.5432 40.9305L77.0116 41.4531ZM77.0116 39.2673L77.35 39.505L77.9782 39.0773L77.5432 38.7922L77.0116 39.2673ZM78.1715 46.68L78.6065 47.0601L79.2347 46.5375L78.7998 46.2524L78.1715 46.68ZM78.1715 44.6843L78.6065 44.9694L79.2347 44.3992L78.7998 44.1617L78.1715 44.6843ZM78.1715 42.4985L78.6065 42.7362L79.2347 42.2134L78.7998 42.0709L78.1715 42.4985ZM78.1715 40.4078L78.6065 40.6454L79.2347 40.1227L78.7998 39.8851L78.1715 40.4078ZM79.5247 45.6346L79.863 46.0148L80.4912 45.4921L80.0563 45.207L79.5247 45.6346ZM79.5247 43.5439L79.863 43.829L80.4912 43.3539L80.0563 43.1163L79.5247 43.5439ZM79.5247 41.4531L79.863 41.6907L80.4912 41.1681L80.0563 40.9305L79.5247 41.4531ZM79.5247 39.2673L79.863 39.505L80.4912 39.0773L80.0563 38.7922L79.5247 39.2673ZM81.4579 39.8851L80.8296 40.4078L81.2162 40.6454L81.7478 40.1227L81.4579 39.8851ZM84.8891 46.0623V47.1552H83.5359L84.8891 46.0623ZM50.1413 72.5292L58.5504 65.5442L58.937 66.7797L50.5763 73.7647L50.1413 72.5292ZM50.673 74.1924L59.082 67.1123L59.6136 68.3477L51.2046 75.3327L50.673 74.1924ZM46.3718 62.9308L54.6358 55.8983L55.1674 57.1338L46.7584 64.1187L46.3718 62.9308ZM48.2565 67.635L56.5206 60.6975L57.0522 61.8379L48.6432 68.8704L48.2565 67.635ZM59.7103 68.7755L60.0969 69.9158V70.0109L68.216 76.8533L67.9743 77.7086L60.6285 71.6739L60.0969 72.1967L60.4352 72.4817L60.9668 72.0066L61.4984 73.147L61.3534 73.242L67.6844 78.5164L67.3461 79.2767L62.03 74.9051L61.3534 75.3327L61.6917 75.6179L62.2233 75.1902L62.7549 76.4257L62.6583 76.4732L67.0561 80.0844L66.6211 80.9397L63.2865 78.0887L62.6583 78.5164L62.9482 78.849L63.4798 78.4214L63.9148 79.6568L66.3312 81.6525L65.9929 82.4603H65.8962L64.5431 81.2249L63.9148 81.7475L64.2047 82.0802L64.7363 81.6525L65.0747 82.4603H63.3832L63.2865 82.3653L63.0449 82.4603H60.8701L60.6285 82.3653L60.5318 82.4603H58.2121L58.1154 82.3653L57.9222 82.4603H55.699L55.5058 82.3653V82.4603H53.9109L53.8142 82.1752L55.8923 80.5121L55.7957 80.3696L55.8923 79.7994L53.621 81.8426L53.186 80.6072L57.1972 77.2809L57.0522 77.186L57.1972 76.7583L53.0894 80.1795L52.5577 78.944L58.5504 74.0498L58.2121 73.9547L58.4538 73.5271L52.4611 78.5164L51.9294 77.376L59.8069 70.8662L59.6136 70.7236V70.3435L51.7362 76.9483L51.3012 75.808L59.7103 68.7755ZM56.2306 81.7475L56.5206 82.0802L57.1972 81.5575L56.8589 81.2249L56.2306 81.7475ZM56.2306 79.6568L56.5206 79.8944L57.1972 79.3717L56.8589 79.1341L56.2306 79.6568ZM57.4871 80.7022L57.9222 80.9397L58.5504 80.5121L58.1154 80.1795L57.4871 80.7022ZM57.4871 78.5164L57.9222 78.849L58.5504 78.3263L58.1154 78.0887L57.4871 78.5164ZM57.4871 76.4732L57.9222 76.7583L58.5504 76.2356L58.1154 75.9505L57.4871 76.4732ZM58.7437 81.7475L59.1786 82.0802L59.8069 81.5575L59.3719 81.2249L58.7437 81.7475ZM58.7437 79.6568L59.1786 79.8944L59.8069 79.3717L59.3719 79.1341L58.7437 79.6568ZM58.7437 77.5661L59.1786 77.8037L59.8069 77.2809L59.3719 76.9959L58.7437 77.5661ZM58.7437 75.3327L59.1786 75.6179L59.8069 75.1902L59.3719 74.9051L58.7437 75.3327ZM58.7437 73.242L59.1786 73.5271L59.8069 73.0045L59.3719 72.7193L58.7437 73.242ZM60.0969 80.7022L60.4352 80.9397L60.9668 80.5121L60.6285 80.1795L60.0969 80.7022ZM60.0969 78.5164L60.4352 78.849L60.9668 78.3263L60.6285 78.0887L60.0969 78.5164ZM60.0969 76.4732L60.4352 76.7583L60.9668 76.2356L60.6285 75.9505L60.0969 76.4732ZM63.5765 80.5121L63.2865 80.1795L62.6583 80.7022L62.9482 80.9397L63.5765 80.5121ZM62.3199 77.2809L62.03 76.9959L61.3534 77.5661L61.6917 77.8037L62.3199 77.2809ZM62.3199 79.3717L62.03 79.1341L61.3534 79.6568L61.6917 79.8944L62.3199 79.3717ZM62.3199 81.5575L62.03 81.2249L61.3534 81.7475L61.6917 82.0802L62.3199 81.5575ZM60.9668 74.0498L60.6285 73.7647L60.0969 74.2874L60.4352 74.5725L60.9668 74.0498ZM47.5316 66.162L55.8923 59.1295L56.4239 60.2699L47.9182 67.3024L47.5316 66.162ZM46.9034 64.4989L55.2641 57.4664L55.7957 58.7018L47.3866 65.7343L46.9034 64.4989ZM45.5985 61.2677L54.1526 54.2352L54.5391 55.4706L46.1301 62.4557L45.5985 61.2677ZM44.9702 59.6522L53.3793 52.6671L53.9109 53.8076L45.5018 60.8876L44.9702 59.6522ZM63.6731 39.695V38.2695H65.3646L63.6731 39.695ZM56.3273 47.1552H51.3012L51.3978 47.3928L42.9888 54.4253L42.5538 53.2849L49.803 47.1552H49.1748L42.3605 52.8097L41.9256 51.6218L47.29 47.1552H46.565L41.7322 51.1467L41.2006 50.0062L44.6803 47.1552H44.052L41.104 49.5786L40.669 48.3432L42.1672 47.1552H41.4423L40.4757 47.9155L40.1374 47.1552H35.1113V38.2695H56.3273V47.1552ZM63.6731 42.4035L68.6026 38.2695H70.5357L63.6731 43.9716V42.4035ZM63.6731 40.2177L65.9929 38.2695H67.9743L63.6731 41.7858V40.2177ZM43.0854 54.8529L51.4945 47.8204L52.0261 48.9609L43.617 55.9934L43.0854 54.8529ZM44.487 57.9891L52.8477 51.0041L53.2826 52.2395L44.8736 59.2245L44.487 57.9891ZM43.8587 56.421L52.2194 49.436L52.6543 50.5764L44.2453 57.6564L43.8587 56.421ZM70.3907 71.3413L62.03 64.3088L62.3199 63.4535L70.729 70.3435L70.3907 71.3413ZM75.4652 58.3692L67.0561 51.3367L67.3461 50.5764L75.7551 57.5614L75.4652 58.3692ZM74.8369 60.0323L66.4279 52.9998L66.7178 52.1445L75.2235 59.1295L74.8369 60.0323ZM68.5059 76.0455L60.0969 69.0605L60.4352 68.2527L68.9408 75.2852L68.5059 76.0455ZM74.2087 61.6004L65.7996 54.5679L66.0895 53.7125L74.4986 60.6975L74.2087 61.6004ZM76.7217 55.0905L68.3126 48.1055L68.6026 47.2977L77.0116 54.3303L76.7217 55.0905ZM76.0935 56.7537L67.6844 49.7687L67.9743 48.9133L76.3834 55.8983L76.0935 56.7537ZM73.5804 63.1685L65.1713 56.2309L65.4613 55.2806L73.8703 62.3131L73.5804 63.1685ZM69.7625 72.9094L61.4984 65.8769L61.6917 65.0216L70.1008 72.0066L69.7625 72.9094ZM72.9521 64.8315L64.5431 57.8465L64.9297 56.9437L73.3387 63.9762L72.9521 64.8315ZM69.1342 74.4774L60.7251 67.4449L61.1601 66.5897L69.5691 73.6222L69.1342 74.4774ZM71.019 69.6782L62.6583 62.6457L63.0449 61.7904L71.4539 68.7755L71.019 69.6782ZM72.3239 66.3996L63.9148 59.4146L64.2047 58.5117L72.6138 65.6393L72.3239 66.3996ZM71.7923 68.0627L63.3832 61.0776L63.5765 60.1749L71.9855 67.2074L71.7923 68.0627Z" fill="black"/>
</g>
</g>
</g>
</g>
<defs>
<clipPath id="clip0_735_2">
<rect width="70" height="70" fill="white" transform="translate(25 25)"/>
</clipPath>
</defs>
</svg>
