<svg width="120" height="120" viewBox="0 0 120 120" fill="none" xmlns="http://www.w3.org/2000/svg">
<g clip-path="url(#clip0_734_46)">
<mask id="mask0_734_46" style="mask-type:luminance" maskUnits="userSpaceOnUse" x="5" y="5" width="110" height="110">
<path d="M115 5H5V115H115V5Z" fill="white"/>
</mask>
<g mask="url(#mask0_734_46)">
<mask id="mask1_734_46" style="mask-type:luminance" maskUnits="userSpaceOnUse" x="5" y="5" width="110" height="110">
<path d="M115 5H5V115H115V5Z" fill="white"/>
</mask>
<g mask="url(#mask1_734_46)">
<mask id="mask2_734_46" style="mask-type:luminance" maskUnits="userSpaceOnUse" x="5" y="5" width="110" height="110">
<path d="M115 5H5V115H115V5Z" fill="white"/>
</mask>
<g mask="url(#mask2_734_46)">
<path opacity="0.6" d="M17.2222 5H115V97.8889H17.2222V5Z" fill="#FFE599"/>
<path opacity="0.8" d="M11.1113 19.6665H106.445V107.667H11.1113V19.6665Z" fill="#FFE599"/>
<path d="M5.71244 100.385H5V11.8354H99.6826V12.5426H5.71244V100.385ZM115 115H20.3174V114.293H114.216V26.3711H115V115Z" fill="#F9BF4B"/>
</g>
<mask id="mask3_734_46" style="mask-type:luminance" maskUnits="userSpaceOnUse" x="20" y="25" width="80" height="71">
<path d="M99.1109 25.7778H20.8887V95.4445H99.1109V25.7778Z" fill="white"/>
</mask>
<g mask="url(#mask3_734_46)">
<path d="M99.1109 37.2019L95.9972 39.8152H93.1873L99.1109 34.8124V37.2019ZM42.3808 74.6113L55.595 63.6348L56.3545 65.5015L43.2162 76.5526L42.3808 74.6113ZM43.368 77.0754L56.5823 66.099L57.1899 68.0404L43.9756 79.0168L43.368 77.0754ZM94.7061 30.8548L94.1746 32.0496L93.7189 31.8257L92.7316 32.4976L93.3392 32.871L99.1109 28.0921V30.5563L92.7316 35.9324L92.2 37.2019L99.1109 31.3776V33.8417L92.0482 39.8152H89.3901L90.6811 40.8606L90.2255 42.2793L87.2637 39.8152H85.2892L89.6938 43.3994L89.2382 44.8928L83.1627 39.8152H81.34L88.7066 46.0128L88.251 47.2076L79.1377 39.8152H77.315L87.7193 48.4768L87.2637 49.8209L75.1886 39.8152H72.9102L74.0494 38.8445L74.5051 37.5751L71.9229 39.8152H68.9611L76.024 33.8417L76.5555 32.647L67.9739 39.8152H65.7715V39.0685L77.9985 28.7641L78.5301 27.6441L65.7715 38.0979V35.6337L77.5428 25.8521H80.8084L81.1122 26.1508L81.6438 25.8521H84.7575L85.2892 26.1508L85.5929 25.8521H88.7066L89.2382 26.1508L89.542 25.8521H92.8836L93.3392 26.1508L93.7189 25.8521H96.6808L96.1491 27.1214L95.6934 26.6734L94.7061 27.42L95.3137 27.7934L97.6679 25.8521H99.1109V27.1214L94.7061 30.8548ZM74.5051 37.4258L75.0367 38.0232L76.024 37.2019L75.5683 36.7538L74.5051 37.4258ZM76.7074 39.0685L77.1631 39.6659L77.9985 38.8445L77.5428 38.3966L76.7074 39.0685ZM76.7074 35.9324L77.1631 36.3804L77.9985 35.4844L77.5428 35.1111L76.7074 35.9324ZM76.7074 32.4976L77.1631 32.871L77.9985 32.0496L77.5428 31.8257L76.7074 32.4976ZM78.6819 37.4258L79.1377 38.0232L80.1249 37.2019L79.6693 36.7538L78.6819 37.4258ZM78.6819 34.1403L79.1377 34.5884L80.1249 33.8417L79.6693 33.4683L78.6819 34.1403ZM78.6819 30.8548L79.1377 31.2282L80.1249 30.4069L79.6693 30.0335L78.6819 30.8548ZM78.6819 27.42L79.1377 27.7934L80.1249 27.1214L79.6693 26.6734L78.6819 27.42ZM80.6566 39.0685L81.1122 39.6659L82.0995 38.8445L81.6438 38.3966L80.6566 39.0685ZM80.6566 35.9324L81.1122 36.3804L82.0995 35.4844L81.6438 35.1111L80.6566 35.9324ZM80.6566 32.4976L81.1122 32.871L82.0995 32.0496L81.6438 31.8257L80.6566 32.4976ZM80.6566 29.2122L81.1122 29.5856L82.0995 28.7641L81.6438 28.3909L80.6566 29.2122ZM82.6311 37.4258L83.1627 38.0232L84.1499 37.2019L83.6184 36.7538L82.6311 37.4258ZM82.6311 34.1403L83.1627 34.5884L84.1499 33.8417L83.6184 33.4683L82.6311 34.1403ZM82.6311 30.8548L83.1627 31.2282L84.1499 30.4069L83.6184 30.0335L82.6311 30.8548ZM82.6311 27.42L83.1627 27.7934L84.1499 27.1214L83.6184 26.6734L82.6311 27.42ZM84.7575 39.0685L85.2892 39.6659L86.1245 38.8445L85.5929 38.3966L84.7575 39.0685ZM84.7575 35.9324L85.2892 36.3804L86.1245 35.4844L85.5929 35.1111L84.7575 35.9324ZM84.7575 32.4976L85.2892 32.871L86.1245 32.0496L85.5929 31.8257L84.7575 32.4976ZM84.7575 29.2122L85.2892 29.5856L86.1245 28.7641L85.5929 28.3909L84.7575 29.2122ZM86.732 37.4258L87.2637 38.0232L88.251 37.2019L87.5674 36.7538L86.732 37.4258ZM86.732 34.1403L87.2637 34.5884L88.251 33.8417L87.5674 33.4683L86.732 34.1403ZM86.732 30.8548L87.2637 31.2282L88.251 30.4069L87.5674 30.0335L86.732 30.8548ZM86.732 27.42L87.2637 27.7934L88.251 27.1214L87.5674 26.6734L86.732 27.42ZM88.5547 39.0685L89.2382 39.6659L90.2255 38.8445L89.542 38.3966L88.5547 39.0685ZM88.5547 35.9324L89.2382 36.3804L90.2255 35.4844L89.542 35.1111L88.5547 35.9324ZM88.5547 32.4976L89.2382 32.871L90.2255 32.0496L89.542 31.8257L88.5547 32.4976ZM88.5547 29.2122L89.2382 29.5856L90.2255 28.7641L89.542 28.3909L88.5547 29.2122ZM90.6811 37.4258L91.2128 38.0232L92.2 37.2019L91.5165 36.7538L90.6811 37.4258ZM90.6811 34.1403L91.2128 34.5884L92.2 33.8417L91.5165 33.4683L90.6811 34.1403ZM90.6811 30.8548L91.2128 31.2282L92.2 30.4069L91.5165 30.0335L90.6811 30.8548ZM90.6811 27.42L91.2128 27.7934L92.2 27.1214L91.5165 26.6734L90.6811 27.42ZM93.7189 28.3909L92.7316 29.2122L93.3392 29.5856L94.1746 28.7641L93.7189 28.3909ZM99.1109 38.0979V39.8152H96.9845L99.1109 38.0979ZM44.5073 79.6887L57.7214 68.7123L58.329 70.6537L45.1907 81.6301L44.5073 79.6887ZM45.3427 82.3022L58.5568 71.1765L59.3922 73.1178L46.178 84.0942L45.3427 82.3022ZM38.5836 64.6055L51.57 53.5544L52.4054 55.4958L39.1912 66.4722L38.5836 64.6055ZM41.5455 71.9978L54.5318 61.0961L55.3672 62.8881L42.153 73.9392L41.5455 71.9978ZM59.5441 73.7899L60.1517 75.582V75.7313L72.9102 86.4837L72.5305 87.8278L60.9871 78.3447L60.1517 79.1661L60.6833 79.6141L61.5186 78.8674L62.354 80.6594L62.1262 80.8088L72.0749 89.0972L71.5433 90.2919L63.1894 83.4223L62.1262 84.0942L62.6579 84.5423L63.4933 83.8702L64.3285 85.8117L64.1767 85.8864L71.0875 91.5612L70.4041 92.9052L65.1639 88.4251L64.1767 89.0972L64.6324 89.6198L65.4678 88.9478L66.1512 90.8892L69.9484 94.0253L69.4169 95.2947H69.265L67.1385 93.3533L66.1512 94.1746L66.6069 94.6974L67.4423 94.0253L67.9739 95.2947H65.3158L65.1639 95.1453L64.7843 95.2947H61.3667L60.9871 95.1453L60.8352 95.2947H57.1899L57.038 95.1453L56.7343 95.2947H53.2408L52.9371 95.1453V95.2947H50.4309L50.279 94.8467L53.5445 92.2333L53.3927 92.0092L53.5445 91.1132L49.9752 94.324L49.2917 92.3826L55.595 87.1557L55.3672 87.0064L55.595 86.3343L49.1399 91.7105L48.3045 89.7691L57.7214 82.0782L57.1899 81.9288L57.5696 81.2568L48.1525 89.0972L47.3172 87.305L59.6961 77.0754L59.3922 76.8514V76.2539L47.0134 86.633L46.3298 84.841L59.5441 73.7899ZM54.0762 94.1746L54.5318 94.6974L55.595 93.8759L55.0635 93.3533L54.0762 94.1746ZM54.0762 90.8892L54.5318 91.2626L55.595 90.4411L55.0635 90.0678L54.0762 90.8892ZM56.0507 92.532L56.7343 92.9052L57.7214 92.2333L57.038 91.7105L56.0507 92.532ZM56.0507 89.0972L56.7343 89.6198L57.7214 88.7985L57.038 88.4251L56.0507 89.0972ZM56.0507 85.8864L56.7343 86.3343L57.7214 85.513L57.038 85.0649L56.0507 85.8864ZM58.0253 94.1746L58.7088 94.6974L59.6961 93.8759L59.0125 93.3533L58.0253 94.1746ZM58.0253 90.8892L58.7088 91.2626L59.6961 90.4411L59.0125 90.0678L58.0253 90.8892ZM58.0253 87.6037L58.7088 87.9771L59.6961 87.1557L59.0125 86.7077L58.0253 87.6037ZM58.0253 84.0942L58.7088 84.5423L59.6961 83.8702L59.0125 83.4223L58.0253 84.0942ZM58.0253 80.8088L58.7088 81.2568L59.6961 80.4355L59.0125 79.9875L58.0253 80.8088ZM60.1517 92.532L60.6833 92.9052L61.5186 92.2333L60.9871 91.7105L60.1517 92.532ZM60.1517 89.0972L60.6833 89.6198L61.5186 88.7985L60.9871 88.4251L60.1517 89.0972ZM60.1517 85.8864L60.6833 86.3343L61.5186 85.513L60.9871 85.0649L60.1517 85.8864ZM65.6197 92.2333L65.1639 91.7105L64.1767 92.532L64.6324 92.9052L65.6197 92.2333ZM63.6451 87.1557L63.1894 86.7077L62.1262 87.6037L62.6579 87.9771L63.6451 87.1557ZM63.6451 90.4411L63.1894 90.0678L62.1262 90.8892L62.6579 91.2626L63.6451 90.4411ZM63.6451 93.8759L63.1894 93.3533L62.1262 94.1746L62.6579 94.6974L63.6451 93.8759ZM61.5186 82.0782L60.9871 81.6301L60.1517 82.4516L60.6833 82.8995L61.5186 82.0782ZM40.4062 69.683L53.5445 58.6319L54.3799 60.4241L41.0138 71.4752L40.4062 69.683ZM39.419 67.0697L52.5573 56.0186L53.3927 57.9599L40.1784 69.011L39.419 67.0697ZM37.3685 61.9921L50.8106 50.941L51.4181 52.8823L38.2039 63.8589L37.3685 61.9921ZM36.3812 59.4534L49.5955 48.4768L50.4309 50.269L37.2166 61.3948L36.3812 59.4534ZM65.7715 28.0921V25.8521H68.4296L65.7715 28.0921ZM54.2281 39.8152H46.3298L46.4818 40.1886L33.2676 51.2397L32.584 49.4477L43.9756 39.8152H42.9884L32.2803 48.7009L31.5968 46.8342L40.0266 39.8152H38.8874L31.293 46.0875L30.4576 44.2954L35.9256 39.8152H34.9382L30.3058 43.6234L29.6222 41.682L31.9764 39.8152H30.8373L29.3185 41.0099L28.7868 39.8152H20.8887V25.8521H54.2281V39.8152ZM65.7715 32.3483L73.5178 25.8521H76.5555L65.7715 34.8124V32.3483ZM65.7715 28.9135L69.4169 25.8521H72.5305L65.7715 31.3776V28.9135ZM33.4194 51.9117L46.6337 40.8606L47.4691 42.6527L34.2548 53.7038L33.4194 51.9117ZM35.6218 56.8399L48.7601 45.8635L49.4436 47.8049L36.2294 58.7813L35.6218 56.8399ZM34.6345 54.3758L47.7728 43.3994L48.4563 45.1914L35.2421 56.3172L34.6345 54.3758ZM76.3277 77.822L63.1894 66.771L63.6451 65.4269L76.8594 76.2539L76.3277 77.822ZM84.3018 57.4372L71.0875 46.3861L71.5433 45.1914L84.7575 56.1678L84.3018 57.4372ZM83.3145 60.0507L70.1004 48.9996L70.556 47.6555L83.9221 58.6319L83.3145 60.0507ZM73.3659 85.2143L60.1517 74.2379L60.6833 72.9685L74.0494 84.0196L73.3659 85.2143ZM82.3273 62.5148L69.113 51.4637L69.5687 50.1196L82.783 61.0961L82.3273 62.5148ZM86.2763 52.2851L73.0622 41.3086L73.5178 40.0392L86.732 51.0903L86.2763 52.2851ZM85.2892 54.8985L72.0749 43.9221L72.5305 42.578L85.7448 53.5544L85.2892 54.8985ZM81.34 64.9789L68.1257 54.0771L68.5815 52.5838L81.7957 63.6348L81.34 64.9789ZM75.3405 80.2862L62.354 69.2351L62.6579 67.891L75.8721 78.8674L75.3405 80.2862ZM80.3527 67.5923L67.1385 56.6159L67.7461 55.1971L80.9603 66.2482L80.3527 67.5923ZM74.3532 82.7502L61.1389 71.6991L61.8225 70.3551L75.0367 81.4062L74.3532 82.7502ZM77.315 75.2086L64.1767 64.1575L64.7843 62.8134L77.9985 73.7899L77.315 75.2086ZM79.3655 70.0564L66.1512 59.08L66.6069 57.6612L79.8212 68.8617L79.3655 70.0564ZM78.5301 72.6699L65.3158 61.6934L65.6197 60.2747L78.8339 71.3258L78.5301 72.6699Z" fill="black"/>
</g>
</g>
</g>
</g>
<defs>
<clipPath id="clip0_734_46">
<rect width="110" height="110" fill="white" transform="translate(5 5)"/>
</clipPath>
</defs>
</svg>
