<svg data-v-6805eed4="" version="1" xmlns="http://www.w3.org/2000/svg" xmlns:xlink="http://www.w3.org/1999/xlink"
    width="100%" height="100%" viewBox="0 0 340 250" preserveAspectRatio="xMidYMid meet"
    color-interpolation-filters="sRGB" style="margin: auto">
    <g fill="" class="iconsvg-imagesvg icon_container" transform="matrix(1,0,0,1,55.6,0)">
        <rect transform="matrix(1.3,0,0,1.7,-17.2,-57.7)" fill="#ffe599" fill-opacity="0" stroke-width="2" x="57.6"
            y="62.9" width="63.8" height="63.8" class="image-rect"></rect> <svg viewBox="0 0 60 64.09160827209024"
            x="71.1" y="68" width="63.8" height="63.8" class="image-svg-svg bn" style="overflow: visible">
            <g hollow-target="iconBnFill" mask="url(#8a3e00a0-7ba1-4a66-98b6-755581de57f5)">
                <g><svg xmlns="http://www.w3.org/2000/svg" viewBox="0 0 132.86 141.92" style="overflow: visible"
                        width="60" height="64.1" x="0" y="0" filtersec="colorsf1568696507">
                        <g transform="scale(1,1) skewX(0)">
                            <path fill="#ffe599" opacity=".6" d="M 19 0 h 113.9 v 113.9 H 19 z"></path>
                            <path fill="#ffe599" opacity=".8" d="M 9.7 18.5 h 113.9 v 113.9 H 9.7 z"></path>
                            <path fill="#f9bf4b"
                                d="M 0.9 123.1 H 0 V 8.8 h 114.3 v 0.9 H 0.9 v 113.4 z M 132.8 141.9 H 18.5 V 141 h 113.4 V 27.6 h 0.9 v 114.3 z">
                            </path>
                        </g>
                    </svg></g>
                <g filter="url(#colors5019301535)"><svg xmlns="http://www.w3.org/2000/svg"
                        xmlns:xlink="http://www.w3.org/1999/xlink" viewBox="0 0 47.380001068115234 50.400001525878906"
                        width="40" height="42.7" x="10" y="10.7" class="image-svg-letter">
                        <path transform="translate(0,50.4)"
                            d="M 47.4 -42.2 L 45.5 -40.3 L 43.8 -40.3 L 47.4 -43.9 L 47.4 -42.2 Z M 13 -15 L 21 -23 L 21.5 -21.6 L 13.5 -13.6 L 13 -15 Z M 13.6 -13.2 L 21.6 -21.2 L 22 -19.8 L 14 -11.8 L 13.6 -13.2 Z M 44.7 -46.8 L 44.4 -45.9 L 44.1 -46.1 L 43.5 -45.6 L 43.9 -45.3 L 47.4 -48.8 L 47.4 -47 L 43.5 -43.1 L 43.2 -42.2 L 47.4 -46.4 L 47.4 -44.6 L 43.1 -40.3 L 41.5 -40.3 L 42.3 -39.5 L 42 -38.5 L 40.2 -40.3 L 39 -40.3 L 41.7 -37.7 L 41.4 -36.6 L 37.7 -40.3 L 36.6 -40.3 L 41.1 -35.8 L 40.8 -34.9 L 35.3 -40.3 L 34.2 -40.3 L 40.5 -34 L 40.2 -33 L 32.9 -40.3 L 31.5 -40.3 L 32.2 -41 L 32.2 -41 L 32.5 -41.9 L 30.9 -40.3 L 29.1 -40.3 L 33.4 -44.6 L 33.4 -44.6 L 33.7 -45.5 L 28.5 -40.3 L 27.2 -40.3 L 27.2 -40.8 L 34.6 -48.3 L 34.6 -48.3 L 34.9 -49.1 L 27.2 -41.5 L 27.2 -43.3 L 34.3 -50.4 L 36.3 -50.4 L 36.5 -50.2 L 36.8 -50.4 L 38.7 -50.4 L 39 -50.2 L 39.2 -50.4 L 41.1 -50.4 L 41.4 -50.2 L 41.6 -50.4 L 43.6 -50.4 L 43.9 -50.2 L 44.1 -50.4 L 45.9 -50.4 L 45.9 -50.4 L 45.6 -49.5 L 45.3 -49.8 L 44.7 -49.3 L 45.1 -49 L 46.5 -50.4 L 47.4 -50.4 L 47.4 -49.5 L 44.7 -46.8 Z M 32.5 -42 L 32.8 -41.6 L 33.4 -42.2 L 33.1 -42.5 L 32.5 -42 Z M 33.8 -40.8 L 34.1 -40.4 L 34.6 -41 L 34.3 -41.3 L 33.8 -40.8 Z M 33.8 -43.1 L 34.1 -42.8 L 34.6 -43.4 L 34.3 -43.7 L 33.8 -43.1 Z M 33.8 -45.6 L 34.1 -45.3 L 34.6 -45.9 L 34.3 -46.1 L 33.8 -45.6 Z M 35 -42 L 35.3 -41.6 L 35.9 -42.2 L 35.6 -42.5 L 35 -42 Z M 35 -44.4 L 35.3 -44.1 L 35.9 -44.6 L 35.6 -44.9 L 35 -44.4 Z M 35 -46.8 L 35.3 -46.5 L 35.9 -47.1 L 35.6 -47.4 L 35 -46.8 Z M 35 -49.3 L 35.3 -49 L 35.9 -49.5 L 35.6 -49.8 L 35 -49.3 Z M 36.2 -40.8 L 36.5 -40.4 L 37.1 -41 L 36.8 -41.3 L 36.2 -40.8 Z M 36.2 -43.1 L 36.5 -42.8 L 37.1 -43.4 L 36.8 -43.7 L 36.2 -43.1 Z M 36.2 -45.6 L 36.5 -45.3 L 37.1 -45.9 L 36.8 -46.1 L 36.2 -45.6 Z M 36.2 -48 L 36.5 -47.7 L 37.1 -48.3 L 36.8 -48.6 L 36.2 -48 Z M 37.4 -42 L 37.7 -41.6 L 38.3 -42.2 L 38 -42.5 L 37.4 -42 Z M 37.4 -44.4 L 37.7 -44.1 L 38.3 -44.6 L 38 -44.9 L 37.4 -44.4 Z M 37.4 -46.8 L 37.7 -46.5 L 38.3 -47.1 L 38 -47.4 L 37.4 -46.8 Z M 37.4 -49.3 L 37.7 -49 L 38.3 -49.5 L 38 -49.8 L 37.4 -49.3 Z M 38.7 -40.8 L 39 -40.4 L 39.5 -41 L 39.2 -41.3 L 38.7 -40.8 Z M 38.7 -43.1 L 39 -42.8 L 39.5 -43.4 L 39.2 -43.7 L 38.7 -43.1 Z M 38.7 -45.6 L 39 -45.3 L 39.5 -45.9 L 39.2 -46.1 L 38.7 -45.6 Z M 38.7 -48 L 39 -47.7 L 39.5 -48.3 L 39.2 -48.6 L 38.7 -48 Z M 39.9 -42 L 40.2 -41.6 L 40.8 -42.2 L 40.4 -42.5 L 39.9 -42 Z M 39.9 -44.4 L 40.2 -44.1 L 40.8 -44.6 L 40.4 -44.9 L 39.9 -44.4 Z M 39.9 -46.8 L 40.2 -46.5 L 40.8 -47.1 L 40.4 -47.4 L 39.9 -46.8 Z M 39.9 -49.3 L 40.2 -49 L 40.8 -49.5 L 40.4 -49.8 L 39.9 -49.3 Z M 41 -40.8 L 41.4 -40.4 L 42 -41 L 41.6 -41.3 L 41 -40.8 Z M 41 -43.1 L 41.4 -42.8 L 42 -43.4 L 41.6 -43.7 L 41 -43.1 Z M 41 -45.6 L 41.4 -45.3 L 42 -45.9 L 41.6 -46.1 L 41 -45.6 Z M 41 -48 L 41.4 -47.7 L 42 -48.3 L 41.6 -48.6 L 41 -48 Z M 42.3 -42 L 42.6 -41.6 L 43.2 -42.2 L 42.8 -42.5 L 42.3 -42 Z M 42.3 -44.4 L 42.6 -44.1 L 43.2 -44.6 L 42.8 -44.9 L 42.3 -44.4 Z M 42.3 -46.8 L 42.6 -46.5 L 43.2 -47.1 L 42.8 -47.4 L 42.3 -46.8 Z M 42.3 -49.3 L 42.6 -49 L 43.2 -49.5 L 42.8 -49.8 L 42.3 -49.3 Z M 44.1 -48.6 L 43.5 -48 L 43.9 -47.7 L 44.4 -48.3 L 44.1 -48.6 Z M 47.4 -41.5 L 47.4 -40.3 L 46.1 -40.3 L 47.4 -41.5 Z M 14.3 -11.3 L 22.3 -19.3 L 22.7 -17.9 L 14.7 -9.9 L 14.3 -11.3 Z M 14.8 -9.4 L 22.8 -17.5 L 23.3 -16.1 L 15.3 -8.1 L 14.8 -9.4 Z M 10.7 -22.3 L 18.6 -30.3 L 19.1 -28.9 L 11.1 -20.9 L 10.7 -22.3 Z M 12.5 -16.9 L 20.4 -24.8 L 20.9 -23.5 L 12.9 -15.5 L 12.5 -16.9 Z M 23.4 -15.6 L 23.8 -14.3 L 23.8 -14.2 L 31.5 -6.4 L 31.3 -5.4 L 24.3 -12.3 L 23.8 -11.7 L 24.1 -11.4 L 24.6 -11.9 L 25.1 -10.6 L 25 -10.5 L 31 -4.5 L 30.7 -3.6 L 25.6 -8.6 L 25 -8.1 L 25.3 -7.8 L 25.8 -8.3 L 26.3 -6.9 L 26.2 -6.8 L 30.4 -2.7 L 30 -1.7 L 26.8 -5 L 26.2 -4.5 L 26.5 -4.1 L 27 -4.6 L 27.4 -3.2 L 27.4 -3.2 L 29.7 -0.9 L 29.4 0 L 29.3 0 L 28 -1.4 L 27.4 -0.8 L 27.7 -0.4 L 28.2 -0.9 L 28.5 0 L 26.9 0 L 26.8 -0.1 L 26.6 0 L 24.5 0 L 24.3 -0.1 L 24.2 0 L 22 0 L 21.9 -0.1 L 21.7 0 L 19.6 0 L 19.4 -0.1 L 19.4 0 L 17.9 0 L 17.8 -0.3 L 19.8 -2.2 L 19.7 -2.4 L 19.8 -3 L 17.6 -0.7 L 17.2 -2.1 L 21 -5.9 L 20.9 -6 L 21 -6.5 L 17.1 -2.6 L 16.6 -4 L 22.3 -9.6 L 22 -9.7 L 22.2 -10.2 L 16.5 -4.5 L 16 -5.8 L 23.5 -13.2 L 23.3 -13.4 L 23.3 -13.8 L 15.8 -6.3 L 15.4 -7.6 L 23.4 -15.6 Z M 20.1 -0.8 L 20.4 -0.4 L 21 -1 L 20.7 -1.4 L 20.1 -0.8 Z M 20.1 -3.2 L 20.4 -2.9 L 21 -3.5 L 20.7 -3.8 L 20.1 -3.2 Z M 21.3 -2 L 21.7 -1.7 L 22.3 -2.2 L 21.9 -2.6 L 21.3 -2 Z M 21.3 -4.5 L 21.7 -4.1 L 22.3 -4.7 L 21.9 -5 L 21.3 -4.5 Z M 21.3 -6.8 L 21.7 -6.5 L 22.3 -7.1 L 21.9 -7.4 L 21.3 -6.8 Z M 22.5 -0.8 L 22.9 -0.4 L 23.5 -1 L 23.1 -1.4 L 22.5 -0.8 Z M 22.5 -3.2 L 22.9 -2.9 L 23.5 -3.5 L 23.1 -3.8 L 22.5 -3.2 Z M 22.5 -5.6 L 22.9 -5.3 L 23.5 -5.9 L 23.1 -6.2 L 22.5 -5.6 Z M 22.5 -8.1 L 22.9 -7.8 L 23.5 -8.3 L 23.1 -8.6 L 22.5 -8.1 Z M 22.5 -10.5 L 22.9 -10.2 L 23.5 -10.8 L 23.1 -11.1 L 22.5 -10.5 Z M 23.8 -2 L 24.1 -1.7 L 24.6 -2.2 L 24.3 -2.6 L 23.8 -2 Z M 23.8 -4.5 L 24.1 -4.1 L 24.6 -4.7 L 24.3 -5 L 23.8 -4.5 Z M 23.8 -6.8 L 24.1 -6.5 L 24.6 -7.1 L 24.3 -7.4 L 23.8 -6.8 Z M 27.1 -2.2 L 26.8 -2.6 L 26.2 -2 L 26.5 -1.7 L 27.1 -2.2 Z M 25.9 -5.9 L 25.6 -6.2 L 25 -5.6 L 25.3 -5.3 L 25.9 -5.9 Z M 25.9 -3.5 L 25.6 -3.8 L 25 -3.2 L 25.3 -2.9 L 25.9 -3.5 Z M 25.9 -1 L 25.6 -1.4 L 25 -0.8 L 25.3 -0.4 L 25.9 -1 Z M 24.6 -9.6 L 24.3 -9.9 L 23.8 -9.3 L 24.1 -9 L 24.6 -9.6 Z M 11.8 -18.6 L 19.8 -26.6 L 20.3 -25.3 L 12.2 -17.3 L 11.8 -18.6 Z M 11.2 -20.5 L 19.2 -28.5 L 19.7 -27.1 L 11.7 -19.1 L 11.2 -20.5 Z M 10 -24.2 L 18.1 -32.2 L 18.5 -30.8 L 10.5 -22.8 L 10 -24.2 Z M 9.4 -26 L 17.4 -34 L 17.9 -32.7 L 9.9 -24.6 L 9.4 -26 Z M 27.2 -48.8 L 27.2 -50.4 L 28.8 -50.4 L 27.2 -48.8 Z M 20.2 -40.3 L 15.4 -40.3 L 15.5 -40 L 7.5 -32 L 7.1 -33.3 L 14 -40.3 L 13.4 -40.3 L 6.9 -33.8 L 6.5 -35.2 L 11.6 -40.3 L 10.9 -40.3 L 6.3 -35.7 L 5.8 -37 L 9.1 -40.3 L 8.5 -40.3 L 5.7 -37.5 L 5.3 -38.9 L 6.7 -40.3 L 6 -40.3 L 5.1 -39.4 L 4.8 -40.3 L 0 -40.3 L 0 -50.4 L 20.2 -50.4 L 20.2 -40.3 Z M 27.2 -45.7 L 31.9 -50.4 L 33.7 -50.4 L 27.2 -43.9 L 27.2 -45.7 Z M 27.2 -48.2 L 29.4 -50.4 L 31.3 -50.4 L 27.2 -46.4 L 27.2 -48.2 Z M 7.6 -31.5 L 15.6 -39.5 L 16.1 -38.2 L 8.1 -30.2 L 7.6 -31.5 Z M 8.9 -27.9 L 16.9 -35.9 L 17.3 -34.5 L 9.3 -26.5 L 8.9 -27.9 Z M 8.3 -29.7 L 16.3 -37.7 L 16.7 -36.4 L 8.7 -28.3 L 8.3 -29.7 Z M 33.6 -12.7 L 25.6 -20.7 L 25.9 -21.7 L 33.9 -13.8 L 33.6 -12.7 Z M 38.4 -27.5 L 30.4 -35.5 L 30.7 -36.4 L 38.7 -28.4 L 38.4 -27.5 Z M 37.8 -25.6 L 29.8 -33.6 L 30.1 -34.6 L 38.2 -26.6 L 37.8 -25.6 Z M 31.8 -7.3 L 23.8 -15.3 L 24.1 -16.2 L 32.2 -8.2 L 31.8 -7.3 Z M 37.2 -23.8 L 29.2 -31.8 L 29.5 -32.8 L 37.5 -24.8 L 37.2 -23.8 Z M 39.6 -31.2 L 31.6 -39.2 L 31.9 -40.1 L 39.9 -32.1 L 39.6 -31.2 Z M 39 -29.3 L 31 -37.3 L 31.3 -38.3 L 39.3 -30.3 L 39 -29.3 Z M 36.6 -22 L 28.6 -29.9 L 28.9 -31 L 36.9 -23 L 36.6 -22 Z M 33 -10.9 L 25.1 -18.9 L 25.3 -19.9 L 33.3 -11.9 L 33 -10.9 Z M 36 -20.1 L 28 -28.1 L 28.4 -29.1 L 36.4 -21.1 L 36 -20.1 Z M 32.4 -9.1 L 24.4 -17.1 L 24.8 -18.1 L 32.8 -10.1 L 32.4 -9.1 Z M 34.2 -14.6 L 26.2 -22.6 L 26.6 -23.6 L 34.6 -15.6 L 34.2 -14.6 Z M 35.4 -18.3 L 27.4 -26.3 L 27.7 -27.3 L 35.7 -19.2 L 35.4 -18.3 Z M 34.9 -16.4 L 26.9 -24.4 L 27.1 -25.4 L 35.1 -17.4 L 34.9 -16.4 Z">
                        </path>
                    </svg></g>
            </g>
            <mask id="8a3e00a0-7ba1-4a66-98b6-755581de57f5">
                <g fill="white"><svg xmlns="http://www.w3.org/2000/svg" viewBox="0 0 132.86 141.92"
                        style="overflow: visible" width="60" height="64.1" x="0" y="0" filtersec="colorsf1568696507">
                        <g transform="scale(1,1) skewX(0)">
                            <path d="M 19 0 h 113.9 v 113.9 H 19 z"></path>
                            <path d="M 9.7 18.5 h 113.9 v 113.9 H 9.7 z"></path>
                            <path
                                d="M 0.9 123.1 H 0 V 8.8 h 114.3 v 0.9 H 0.9 v 113.4 z M 132.8 141.9 H 18.5 V 141 h 113.4 V 27.6 h 0.9 v 114.3 z">
                            </path>
                        </g>
                    </svg></g>
                <g fill="black"><svg xmlns="http://www.w3.org/2000/svg" xmlns:xlink="http://www.w3.org/1999/xlink"
                        viewBox="0 0 47.380001068115234 50.400001525878906" width="40" height="42.7" x="10" y="10.7"
                        class="image-svg-letter">
                        <path transform="translate(0,50.4)"
                            d="M 47.4 -42.2 L 45.5 -40.3 L 43.8 -40.3 L 47.4 -43.9 L 47.4 -42.2 Z M 13 -15 L 21 -23 L 21.5 -21.6 L 13.5 -13.6 L 13 -15 Z M 13.6 -13.2 L 21.6 -21.2 L 22 -19.8 L 14 -11.8 L 13.6 -13.2 Z M 44.7 -46.8 L 44.4 -45.9 L 44.1 -46.1 L 43.5 -45.6 L 43.9 -45.3 L 47.4 -48.8 L 47.4 -47 L 43.5 -43.1 L 43.2 -42.2 L 47.4 -46.4 L 47.4 -44.6 L 43.1 -40.3 L 41.5 -40.3 L 42.3 -39.5 L 42 -38.5 L 40.2 -40.3 L 39 -40.3 L 41.7 -37.7 L 41.4 -36.6 L 37.7 -40.3 L 36.6 -40.3 L 41.1 -35.8 L 40.8 -34.9 L 35.3 -40.3 L 34.2 -40.3 L 40.5 -34 L 40.2 -33 L 32.9 -40.3 L 31.5 -40.3 L 32.2 -41 L 32.2 -41 L 32.5 -41.9 L 30.9 -40.3 L 29.1 -40.3 L 33.4 -44.6 L 33.4 -44.6 L 33.7 -45.5 L 28.5 -40.3 L 27.2 -40.3 L 27.2 -40.8 L 34.6 -48.3 L 34.6 -48.3 L 34.9 -49.1 L 27.2 -41.5 L 27.2 -43.3 L 34.3 -50.4 L 36.3 -50.4 L 36.5 -50.2 L 36.8 -50.4 L 38.7 -50.4 L 39 -50.2 L 39.2 -50.4 L 41.1 -50.4 L 41.4 -50.2 L 41.6 -50.4 L 43.6 -50.4 L 43.9 -50.2 L 44.1 -50.4 L 45.9 -50.4 L 45.9 -50.4 L 45.6 -49.5 L 45.3 -49.8 L 44.7 -49.3 L 45.1 -49 L 46.5 -50.4 L 47.4 -50.4 L 47.4 -49.5 L 44.7 -46.8 Z M 32.5 -42 L 32.8 -41.6 L 33.4 -42.2 L 33.1 -42.5 L 32.5 -42 Z M 33.8 -40.8 L 34.1 -40.4 L 34.6 -41 L 34.3 -41.3 L 33.8 -40.8 Z M 33.8 -43.1 L 34.1 -42.8 L 34.6 -43.4 L 34.3 -43.7 L 33.8 -43.1 Z M 33.8 -45.6 L 34.1 -45.3 L 34.6 -45.9 L 34.3 -46.1 L 33.8 -45.6 Z M 35 -42 L 35.3 -41.6 L 35.9 -42.2 L 35.6 -42.5 L 35 -42 Z M 35 -44.4 L 35.3 -44.1 L 35.9 -44.6 L 35.6 -44.9 L 35 -44.4 Z M 35 -46.8 L 35.3 -46.5 L 35.9 -47.1 L 35.6 -47.4 L 35 -46.8 Z M 35 -49.3 L 35.3 -49 L 35.9 -49.5 L 35.6 -49.8 L 35 -49.3 Z M 36.2 -40.8 L 36.5 -40.4 L 37.1 -41 L 36.8 -41.3 L 36.2 -40.8 Z M 36.2 -43.1 L 36.5 -42.8 L 37.1 -43.4 L 36.8 -43.7 L 36.2 -43.1 Z M 36.2 -45.6 L 36.5 -45.3 L 37.1 -45.9 L 36.8 -46.1 L 36.2 -45.6 Z M 36.2 -48 L 36.5 -47.7 L 37.1 -48.3 L 36.8 -48.6 L 36.2 -48 Z M 37.4 -42 L 37.7 -41.6 L 38.3 -42.2 L 38 -42.5 L 37.4 -42 Z M 37.4 -44.4 L 37.7 -44.1 L 38.3 -44.6 L 38 -44.9 L 37.4 -44.4 Z M 37.4 -46.8 L 37.7 -46.5 L 38.3 -47.1 L 38 -47.4 L 37.4 -46.8 Z M 37.4 -49.3 L 37.7 -49 L 38.3 -49.5 L 38 -49.8 L 37.4 -49.3 Z M 38.7 -40.8 L 39 -40.4 L 39.5 -41 L 39.2 -41.3 L 38.7 -40.8 Z M 38.7 -43.1 L 39 -42.8 L 39.5 -43.4 L 39.2 -43.7 L 38.7 -43.1 Z M 38.7 -45.6 L 39 -45.3 L 39.5 -45.9 L 39.2 -46.1 L 38.7 -45.6 Z M 38.7 -48 L 39 -47.7 L 39.5 -48.3 L 39.2 -48.6 L 38.7 -48 Z M 39.9 -42 L 40.2 -41.6 L 40.8 -42.2 L 40.4 -42.5 L 39.9 -42 Z M 39.9 -44.4 L 40.2 -44.1 L 40.8 -44.6 L 40.4 -44.9 L 39.9 -44.4 Z M 39.9 -46.8 L 40.2 -46.5 L 40.8 -47.1 L 40.4 -47.4 L 39.9 -46.8 Z M 39.9 -49.3 L 40.2 -49 L 40.8 -49.5 L 40.4 -49.8 L 39.9 -49.3 Z M 41 -40.8 L 41.4 -40.4 L 42 -41 L 41.6 -41.3 L 41 -40.8 Z M 41 -43.1 L 41.4 -42.8 L 42 -43.4 L 41.6 -43.7 L 41 -43.1 Z M 41 -45.6 L 41.4 -45.3 L 42 -45.9 L 41.6 -46.1 L 41 -45.6 Z M 41 -48 L 41.4 -47.7 L 42 -48.3 L 41.6 -48.6 L 41 -48 Z M 42.3 -42 L 42.6 -41.6 L 43.2 -42.2 L 42.8 -42.5 L 42.3 -42 Z M 42.3 -44.4 L 42.6 -44.1 L 43.2 -44.6 L 42.8 -44.9 L 42.3 -44.4 Z M 42.3 -46.8 L 42.6 -46.5 L 43.2 -47.1 L 42.8 -47.4 L 42.3 -46.8 Z M 42.3 -49.3 L 42.6 -49 L 43.2 -49.5 L 42.8 -49.8 L 42.3 -49.3 Z M 44.1 -48.6 L 43.5 -48 L 43.9 -47.7 L 44.4 -48.3 L 44.1 -48.6 Z M 47.4 -41.5 L 47.4 -40.3 L 46.1 -40.3 L 47.4 -41.5 Z M 14.3 -11.3 L 22.3 -19.3 L 22.7 -17.9 L 14.7 -9.9 L 14.3 -11.3 Z M 14.8 -9.4 L 22.8 -17.5 L 23.3 -16.1 L 15.3 -8.1 L 14.8 -9.4 Z M 10.7 -22.3 L 18.6 -30.3 L 19.1 -28.9 L 11.1 -20.9 L 10.7 -22.3 Z M 12.5 -16.9 L 20.4 -24.8 L 20.9 -23.5 L 12.9 -15.5 L 12.5 -16.9 Z M 23.4 -15.6 L 23.8 -14.3 L 23.8 -14.2 L 31.5 -6.4 L 31.3 -5.4 L 24.3 -12.3 L 23.8 -11.7 L 24.1 -11.4 L 24.6 -11.9 L 25.1 -10.6 L 25 -10.5 L 31 -4.5 L 30.7 -3.6 L 25.6 -8.6 L 25 -8.1 L 25.3 -7.8 L 25.8 -8.3 L 26.3 -6.9 L 26.2 -6.8 L 30.4 -2.7 L 30 -1.7 L 26.8 -5 L 26.2 -4.5 L 26.5 -4.1 L 27 -4.6 L 27.4 -3.2 L 27.4 -3.2 L 29.7 -0.9 L 29.4 0 L 29.3 0 L 28 -1.4 L 27.4 -0.8 L 27.7 -0.4 L 28.2 -0.9 L 28.5 0 L 26.9 0 L 26.8 -0.1 L 26.6 0 L 24.5 0 L 24.3 -0.1 L 24.2 0 L 22 0 L 21.9 -0.1 L 21.7 0 L 19.6 0 L 19.4 -0.1 L 19.4 0 L 17.9 0 L 17.8 -0.3 L 19.8 -2.2 L 19.7 -2.4 L 19.8 -3 L 17.6 -0.7 L 17.2 -2.1 L 21 -5.9 L 20.9 -6 L 21 -6.5 L 17.1 -2.6 L 16.6 -4 L 22.3 -9.6 L 22 -9.7 L 22.2 -10.2 L 16.5 -4.5 L 16 -5.8 L 23.5 -13.2 L 23.3 -13.4 L 23.3 -13.8 L 15.8 -6.3 L 15.4 -7.6 L 23.4 -15.6 Z M 20.1 -0.8 L 20.4 -0.4 L 21 -1 L 20.7 -1.4 L 20.1 -0.8 Z M 20.1 -3.2 L 20.4 -2.9 L 21 -3.5 L 20.7 -3.8 L 20.1 -3.2 Z M 21.3 -2 L 21.7 -1.7 L 22.3 -2.2 L 21.9 -2.6 L 21.3 -2 Z M 21.3 -4.5 L 21.7 -4.1 L 22.3 -4.7 L 21.9 -5 L 21.3 -4.5 Z M 21.3 -6.8 L 21.7 -6.5 L 22.3 -7.1 L 21.9 -7.4 L 21.3 -6.8 Z M 22.5 -0.8 L 22.9 -0.4 L 23.5 -1 L 23.1 -1.4 L 22.5 -0.8 Z M 22.5 -3.2 L 22.9 -2.9 L 23.5 -3.5 L 23.1 -3.8 L 22.5 -3.2 Z M 22.5 -5.6 L 22.9 -5.3 L 23.5 -5.9 L 23.1 -6.2 L 22.5 -5.6 Z M 22.5 -8.1 L 22.9 -7.8 L 23.5 -8.3 L 23.1 -8.6 L 22.5 -8.1 Z M 22.5 -10.5 L 22.9 -10.2 L 23.5 -10.8 L 23.1 -11.1 L 22.5 -10.5 Z M 23.8 -2 L 24.1 -1.7 L 24.6 -2.2 L 24.3 -2.6 L 23.8 -2 Z M 23.8 -4.5 L 24.1 -4.1 L 24.6 -4.7 L 24.3 -5 L 23.8 -4.5 Z M 23.8 -6.8 L 24.1 -6.5 L 24.6 -7.1 L 24.3 -7.4 L 23.8 -6.8 Z M 27.1 -2.2 L 26.8 -2.6 L 26.2 -2 L 26.5 -1.7 L 27.1 -2.2 Z M 25.9 -5.9 L 25.6 -6.2 L 25 -5.6 L 25.3 -5.3 L 25.9 -5.9 Z M 25.9 -3.5 L 25.6 -3.8 L 25 -3.2 L 25.3 -2.9 L 25.9 -3.5 Z M 25.9 -1 L 25.6 -1.4 L 25 -0.8 L 25.3 -0.4 L 25.9 -1 Z M 24.6 -9.6 L 24.3 -9.9 L 23.8 -9.3 L 24.1 -9 L 24.6 -9.6 Z M 11.8 -18.6 L 19.8 -26.6 L 20.3 -25.3 L 12.2 -17.3 L 11.8 -18.6 Z M 11.2 -20.5 L 19.2 -28.5 L 19.7 -27.1 L 11.7 -19.1 L 11.2 -20.5 Z M 10 -24.2 L 18.1 -32.2 L 18.5 -30.8 L 10.5 -22.8 L 10 -24.2 Z M 9.4 -26 L 17.4 -34 L 17.9 -32.7 L 9.9 -24.6 L 9.4 -26 Z M 27.2 -48.8 L 27.2 -50.4 L 28.8 -50.4 L 27.2 -48.8 Z M 20.2 -40.3 L 15.4 -40.3 L 15.5 -40 L 7.5 -32 L 7.1 -33.3 L 14 -40.3 L 13.4 -40.3 L 6.9 -33.8 L 6.5 -35.2 L 11.6 -40.3 L 10.9 -40.3 L 6.3 -35.7 L 5.8 -37 L 9.1 -40.3 L 8.5 -40.3 L 5.7 -37.5 L 5.3 -38.9 L 6.7 -40.3 L 6 -40.3 L 5.1 -39.4 L 4.8 -40.3 L 0 -40.3 L 0 -50.4 L 20.2 -50.4 L 20.2 -40.3 Z M 27.2 -45.7 L 31.9 -50.4 L 33.7 -50.4 L 27.2 -43.9 L 27.2 -45.7 Z M 27.2 -48.2 L 29.4 -50.4 L 31.3 -50.4 L 27.2 -46.4 L 27.2 -48.2 Z M 7.6 -31.5 L 15.6 -39.5 L 16.1 -38.2 L 8.1 -30.2 L 7.6 -31.5 Z M 8.9 -27.9 L 16.9 -35.9 L 17.3 -34.5 L 9.3 -26.5 L 8.9 -27.9 Z M 8.3 -29.7 L 16.3 -37.7 L 16.7 -36.4 L 8.7 -28.3 L 8.3 -29.7 Z M 33.6 -12.7 L 25.6 -20.7 L 25.9 -21.7 L 33.9 -13.8 L 33.6 -12.7 Z M 38.4 -27.5 L 30.4 -35.5 L 30.7 -36.4 L 38.7 -28.4 L 38.4 -27.5 Z M 37.8 -25.6 L 29.8 -33.6 L 30.1 -34.6 L 38.2 -26.6 L 37.8 -25.6 Z M 31.8 -7.3 L 23.8 -15.3 L 24.1 -16.2 L 32.2 -8.2 L 31.8 -7.3 Z M 37.2 -23.8 L 29.2 -31.8 L 29.5 -32.8 L 37.5 -24.8 L 37.2 -23.8 Z M 39.6 -31.2 L 31.6 -39.2 L 31.9 -40.1 L 39.9 -32.1 L 39.6 -31.2 Z M 39 -29.3 L 31 -37.3 L 31.3 -38.3 L 39.3 -30.3 L 39 -29.3 Z M 36.6 -22 L 28.6 -29.9 L 28.9 -31 L 36.9 -23 L 36.6 -22 Z M 33 -10.9 L 25.1 -18.9 L 25.3 -19.9 L 33.3 -11.9 L 33 -10.9 Z M 36 -20.1 L 28 -28.1 L 28.4 -29.1 L 36.4 -21.1 L 36 -20.1 Z M 32.4 -9.1 L 24.4 -17.1 L 24.8 -18.1 L 32.8 -10.1 L 32.4 -9.1 Z M 34.2 -14.6 L 26.2 -22.6 L 26.6 -23.6 L 34.6 -15.6 L 34.2 -14.6 Z M 35.4 -18.3 L 27.4 -26.3 L 27.7 -27.3 L 35.7 -19.2 L 35.4 -18.3 Z M 34.9 -16.4 L 26.9 -24.4 L 27.1 -25.4 L 35.1 -17.4 L 34.9 -16.4 Z">
                        </path>
                    </svg></g>
            </mask>
        </svg>
        <defs transform="matrix(null,null,null,null,null,null)">
            <filter id="colors5019301535">
                <feColorMatrix type="matrix"
                    values="0 0 0 0 0.99609375  0 0 0 0 0.89453125  0 0 0 0 0.59765625  0 0 0 1 0"
                    class="icon-fecolormatrix"></feColorMatrix>
            </filter>
            <filter id="colorsf1568696507">
                <feColorMatrix type="matrix"
                    values="0 0 0 0 0.99609375  0 0 0 0 0.99609375  0 0 0 0 0.99609375  0 0 0 1 0"
                    class="icon-fecolormatrix"></feColorMatrix>
            </filter>
            <filter id="colorsb9683868535">
                <feColorMatrix type="matrix" values="0 0 0 0 0  0 0 0 0 0  0 0 0 0 0  0 0 0 1 0"
                    class="icon-fecolormatrix"></feColorMatrix>
            </filter>
        </defs>
    </g>
</svg>