<svg width="165" height="140" viewBox="0 0 165 140" fill="none" xmlns="http://www.w3.org/2000/svg">
<g clip-path="url(#clip0_625_7)">
<g clip-path="url(#clip1_625_7)">
<path transform="matrix(1.1,0,0,1.1,-12.6,-4.1)" opacity="0.6" d="M 27.6 3.9 H 160 V 116.3 H 27.6 V 3.9 Z" fill="#ffe599"/>
<path transform="matrix(1.1,0,0,1.1,-12.7,-5.5)" opacity="0.8" d="M 16.7 23.4 H 149.2 V 135.7 H 16.7 V 23.4 Z" fill="#ffe599"/>
<path transform="matrix(1.1,0,0,1.1,-12.7,-5.5)" d="M 6.5 126.5 H 5.5 V 13.8 H 138.4 V 14.7 H 6.5 V 126.5 Z M 159.9 145.1 H 27 V 144.2 H 158.8 V 32.3 H 159.9 V 145.1 Z" fill="#f9bf4b"/>
</g>
<g clip-path="url(#clip2_625_7)">
<path d="M 133 38.7 L 128.9 42.2 H 125.2 L 133 35.5 V 38.7 Z M 58.3 88.8 L 75.7 74.1 L 76.7 76.6 L 59.4 91.4 L 58.3 88.8 Z M 59.6 92.1 L 77 77.4 L 77.8 80 L 60.4 94.7 L 59.6 92.1 Z M 127.2 30.2 L 126.5 31.8 L 125.9 31.5 L 124.6 32.4 L 125.4 32.9 L 133 26.5 V 29.8 L 124.6 37 L 123.9 38.7 L 133 30.9 V 34.2 L 123.7 42.2 H 120.2 L 121.9 43.6 L 121.3 45.5 L 117.4 42.2 H 114.8 L 120.6 47 L 120 49 L 112 42.2 H 109.6 L 119.3 50.5 L 118.7 52.1 L 106.7 42.2 H 104.3 L 118 53.8 L 117.4 55.6 L 101.5 42.2 H 98.5 L 100 40.9 L 100.6 39.2 L 97.2 42.2 H 93.3 L 102.6 34.2 L 103.3 32.6 L 92 42.2 H 89.1 V 41.2 L 105.2 27.4 L 105.9 25.9 L 89.1 39.9 V 36.6 L 104.6 23.5 H 108.9 L 109.3 23.9 L 110 23.5 H 114.1 L 114.8 23.9 L 115.2 23.5 H 119.3 L 120 23.9 L 120.4 23.5 H 124.8 L 125.4 23.9 L 125.9 23.5 H 129.8 L 129.1 25.2 L 128.5 24.6 L 127.2 25.6 L 128 26.1 L 131.1 23.5 H 133 V 25.2 L 127.2 30.2 Z M 100.6 39 L 101.3 39.8 L 102.6 38.7 L 102 38.1 L 100.6 39 Z M 103.5 41.2 L 104.1 42 L 105.2 40.9 L 104.6 40.3 L 103.5 41.2 Z M 103.5 37 L 104.1 37.6 L 105.2 36.4 L 104.6 35.9 L 103.5 37 Z M 103.5 32.4 L 104.1 32.9 L 105.2 31.8 L 104.6 31.5 L 103.5 32.4 Z M 106.1 39 L 106.7 39.8 L 108 38.7 L 107.4 38.1 L 106.1 39 Z M 106.1 34.6 L 106.7 35.2 L 108 34.2 L 107.4 33.7 L 106.1 34.6 Z M 106.1 30.2 L 106.7 30.7 L 108 29.6 L 107.4 29.1 L 106.1 30.2 Z M 106.1 25.6 L 106.7 26.1 L 108 25.2 L 107.4 24.6 L 106.1 25.6 Z M 108.7 41.2 L 109.3 42 L 110.6 40.9 L 110 40.3 L 108.7 41.2 Z M 108.7 37 L 109.3 37.6 L 110.6 36.4 L 110 35.9 L 108.7 37 Z M 108.7 32.4 L 109.3 32.9 L 110.6 31.8 L 110 31.5 L 108.7 32.4 Z M 108.7 28 L 109.3 28.5 L 110.6 27.4 L 110 26.9 L 108.7 28 Z M 111.3 39 L 112 39.8 L 113.3 38.7 L 112.6 38.1 L 111.3 39 Z M 111.3 34.6 L 112 35.2 L 113.3 34.2 L 112.6 33.7 L 111.3 34.6 Z M 111.3 30.2 L 112 30.7 L 113.3 29.6 L 112.6 29.1 L 111.3 30.2 Z M 111.3 25.6 L 112 26.1 L 113.3 25.2 L 112.6 24.6 L 111.3 25.6 Z M 114.1 41.2 L 114.8 42 L 115.9 40.9 L 115.2 40.3 L 114.1 41.2 Z M 114.1 37 L 114.8 37.6 L 115.9 36.4 L 115.2 35.9 L 114.1 37 Z M 114.1 32.4 L 114.8 32.9 L 115.9 31.8 L 115.2 31.5 L 114.1 32.4 Z M 114.1 28 L 114.8 28.5 L 115.9 27.4 L 115.2 26.9 L 114.1 28 Z M 116.7 39 L 117.4 39.8 L 118.7 38.7 L 117.8 38.1 L 116.7 39 Z M 116.7 34.6 L 117.4 35.2 L 118.7 34.2 L 117.8 33.7 L 116.7 34.6 Z M 116.7 30.2 L 117.4 30.7 L 118.7 29.6 L 117.8 29.1 L 116.7 30.2 Z M 116.7 25.6 L 117.4 26.1 L 118.7 25.2 L 117.8 24.6 L 116.7 25.6 Z M 119.1 41.2 L 120 42 L 121.3 40.9 L 120.4 40.3 L 119.1 41.2 Z M 119.1 37 L 120 37.6 L 121.3 36.4 L 120.4 35.9 L 119.1 37 Z M 119.1 32.4 L 120 32.9 L 121.3 31.8 L 120.4 31.5 L 119.1 32.4 Z M 119.1 28 L 120 28.5 L 121.3 27.4 L 120.4 26.9 L 119.1 28 Z M 121.9 39 L 122.6 39.8 L 123.9 38.7 L 123 38.1 L 121.9 39 Z M 121.9 34.6 L 122.6 35.2 L 123.9 34.2 L 123 33.7 L 121.9 34.6 Z M 121.9 30.2 L 122.6 30.7 L 123.9 29.6 L 123 29.1 L 121.9 30.2 Z M 121.9 25.6 L 122.6 26.1 L 123.9 25.2 L 123 24.6 L 121.9 25.6 Z M 125.9 26.9 L 124.6 28 L 125.4 28.5 L 126.5 27.4 L 125.9 26.9 Z M 133 39.9 V 42.2 H 130.2 L 133 39.9 Z M 61.1 95.6 L 78.5 80.9 L 79.3 83.5 L 62 98.2 L 61.1 95.6 Z M 62.2 99.1 L 79.6 84.2 L 80.7 86.8 L 63.3 101.5 L 62.2 99.1 Z M 53.3 75.4 L 70.4 60.6 L 71.5 63.2 L 54.1 77.9 L 53.3 75.4 Z M 57.2 85.3 L 74.3 70.7 L 75.4 73.1 L 58 87.9 L 57.2 85.3 Z M 80.9 87.7 L 81.7 90.1 V 90.3 L 98.5 104.7 L 98 106.5 L 82.8 93.8 L 81.7 94.9 L 82.4 95.5 L 83.5 94.5 L 84.6 96.9 L 84.3 97.1 L 97.4 108.2 L 96.7 109.8 L 85.7 100.6 L 84.3 101.5 L 85 102.1 L 86.1 101.2 L 87.2 103.8 L 87 103.9 L 96.1 111.5 L 95.2 113.3 L 88.3 107.3 L 87 108.2 L 87.6 108.9 L 88.7 108 L 89.6 110.6 L 94.6 114.8 L 93.9 116.5 H 93.7 L 90.9 113.9 L 89.6 115 L 90.2 115.7 L 91.3 114.8 L 92 116.5 H 88.5 L 88.3 116.3 L 87.8 116.5 H 83.3 L 82.8 116.3 L 82.6 116.5 H 77.8 L 77.6 116.3 L 77.2 116.5 H 72.6 L 72.2 116.3 V 116.5 H 68.9 L 68.7 115.9 L 73 112.4 L 72.8 112.1 L 73 110.9 L 68.3 115.2 L 67.4 112.6 L 75.7 105.6 L 75.4 105.4 L 75.7 104.5 L 67.2 111.7 L 66.1 109.1 L 78.5 98.8 L 77.8 98.6 L 78.3 97.7 L 65.9 108.2 L 64.8 105.8 L 81.1 92.1 L 80.7 91.8 V 91 L 64.4 104.9 L 63.5 102.5 L 80.9 87.7 Z M 73.7 115 L 74.3 115.7 L 75.7 114.6 L 75 113.9 L 73.7 115 Z M 73.7 110.6 L 74.3 111.1 L 75.7 110 L 75 109.5 L 73.7 110.6 Z M 76.3 112.8 L 77.2 113.3 L 78.5 112.4 L 77.6 111.7 L 76.3 112.8 Z M 76.3 108.2 L 77.2 108.9 L 78.5 107.8 L 77.6 107.3 L 76.3 108.2 Z M 76.3 103.9 L 77.2 104.5 L 78.5 103.4 L 77.6 102.8 L 76.3 103.9 Z M 78.9 115 L 79.8 115.7 L 81.1 114.6 L 80.2 113.9 L 78.9 115 Z M 78.9 110.6 L 79.8 111.1 L 81.1 110 L 80.2 109.5 L 78.9 110.6 Z M 78.9 106.2 L 79.8 106.7 L 81.1 105.6 L 80.2 105 L 78.9 106.2 Z M 78.9 101.5 L 79.8 102.1 L 81.1 101.2 L 80.2 100.6 L 78.9 101.5 Z M 78.9 97.1 L 79.8 97.7 L 81.1 96.6 L 80.2 96 L 78.9 97.1 Z M 81.7 112.8 L 82.4 113.3 L 83.5 112.4 L 82.8 111.7 L 81.7 112.8 Z M 81.7 108.2 L 82.4 108.9 L 83.5 107.8 L 82.8 107.3 L 81.7 108.2 Z M 81.7 103.9 L 82.4 104.5 L 83.5 103.4 L 82.8 102.8 L 81.7 103.9 Z M 88.9 112.4 L 88.3 111.7 L 87 112.8 L 87.6 113.3 L 88.9 112.4 Z M 86.3 105.6 L 85.7 105 L 84.3 106.2 L 85 106.7 L 86.3 105.6 Z M 86.3 110 L 85.7 109.5 L 84.3 110.6 L 85 111.1 L 86.3 110 Z M 86.3 114.6 L 85.7 113.9 L 84.3 115 L 85 115.7 L 86.3 114.6 Z M 83.5 98.8 L 82.8 98.2 L 81.7 99.3 L 82.4 99.9 L 83.5 98.8 Z M 55.7 82.2 L 73 67.4 L 74.1 69.8 L 56.5 84.6 L 55.7 82.2 Z M 54.4 78.7 L 71.7 63.9 L 72.8 66.5 L 55.4 81.3 L 54.4 78.7 Z M 51.7 71.9 L 69.4 57.1 L 70.2 59.7 L 52.8 74.4 L 51.7 71.9 Z M 50.4 68.5 L 67.8 53.8 L 68.9 56.2 L 51.5 71.1 L 50.4 68.5 Z M 89.1 26.5 V 23.5 H 92.6 L 89.1 26.5 Z M 73.9 42.2 H 63.5 L 63.7 42.7 L 46.3 57.5 L 45.4 55.1 L 60.4 42.2 H 59.1 L 45 54.1 L 44.1 51.6 L 55.2 42.2 H 53.7 L 43.7 50.6 L 42.6 48.2 L 49.8 42.2 H 48.5 L 42.4 47.3 L 41.5 44.7 L 44.6 42.2 H 43.1 L 41.1 43.8 L 40.4 42.2 H 30 V 23.5 H 73.9 V 42.2 Z M 89.1 32.2 L 99.3 23.5 H 103.3 L 89.1 35.5 V 32.2 Z M 89.1 27.6 L 93.9 23.5 H 98 L 89.1 30.9 V 27.6 Z M 46.5 58.4 L 63.9 43.6 L 65 46 L 47.6 60.8 L 46.5 58.4 Z M 49.4 65 L 66.7 50.3 L 67.6 52.9 L 50.2 67.6 L 49.4 65 Z M 48.1 61.7 L 65.4 47 L 66.3 49.4 L 48.9 64.3 L 48.1 61.7 Z M 103 93.1 L 85.7 78.3 L 86.3 76.5 L 103.7 91 L 103 93.1 Z M 113.5 65.8 L 96.1 51 L 96.7 49.4 L 114.1 64.1 L 113.5 65.8 Z M 112.2 69.3 L 94.8 54.5 L 95.4 52.7 L 113 67.4 L 112.2 69.3 Z M 99.1 103 L 81.7 88.3 L 82.4 86.6 L 100 101.4 L 99.1 103 Z M 110.9 72.6 L 93.5 57.8 L 94.1 56 L 111.5 70.7 L 110.9 72.6 Z M 116.1 58.9 L 98.7 44.2 L 99.3 42.5 L 116.7 57.3 L 116.1 58.9 Z M 114.8 62.4 L 97.4 47.7 L 98 45.9 L 115.4 60.6 L 114.8 62.4 Z M 109.6 75.9 L 92.2 61.3 L 92.8 59.3 L 110.2 74.1 L 109.6 75.9 Z M 101.7 96.4 L 84.6 81.6 L 85 79.8 L 102.4 94.5 L 101.7 96.4 Z M 108.3 79.4 L 90.9 64.7 L 91.7 62.8 L 109.1 77.6 L 108.3 79.4 Z M 100.4 99.7 L 83 84.9 L 83.9 83.1 L 101.3 97.9 L 100.4 99.7 Z M 104.3 89.6 L 87 74.8 L 87.8 73 L 105.2 87.7 L 104.3 89.6 Z M 107 82.7 L 89.6 68 L 90.2 66.1 L 107.6 81.1 L 107 82.7 Z M 105.9 86.2 L 88.5 71.5 L 88.9 69.6 L 106.3 84.4 L 105.9 86.2 Z" fill="black"/>
</g>
</g>
<defs>
<clipPath id="clip0_625_7">
<rect width="165" height="140" fill="white"/>
</clipPath>
<clipPath id="clip1_625_7">
<rect width="154.5" height="140" fill="white" transform="translate(5.3)"/>
</clipPath>
<clipPath id="clip2_625_7">
<rect width="103" height="93.3" fill="white" transform="translate(31,23.4)"/>
</clipPath>
</defs>
</svg>
