<svg width="165" height="140" viewBox="0 0 165 140" fill="none" xmlns="http://www.w3.org/2000/svg">
    <g clip-path="url(#clip0_625_7)">
        <g clip-path="url(#clip1_625_7)">
            <path transform="matrix(0.6,0,0,0.7,31.4,16.9)" opacity="0.6" d="M 29.7 9.4 H 162.1 V 121.8 H 29.7 V 9.4 Z"
                fill="#ffe599" />
            <path transform="matrix(0.6,0,0,0.7,27.9,20.8)" opacity="0.8"
                d="M 24.1 22.7 H 156.6 V 135 H 24.1 V 22.7 Z" fill="#ffe599" />
            <path transform="matrix(0.6,0,0,0.7,27.8,20.8)"
                d="M 14 125.8 H 13 V 13.1 H 145.9 V 14 H 14 V 125.8 Z M 167.4 144.4 H 34.5 V 143.5 H 166.3 V 31.6 H 167.4 V 144.4 Z"
                fill="#f9bf4b" />
        </g>
        <g clip-path="url(#clip2_625_7)">
            <path transform="matrix(0.6,0,0,0.6,35.8,26.1)"
                d="M 128.9 45.3 L 124.8 48.8 H 121.1 L 128.9 42.1 V 45.3 Z M 54.2 95.4 L 71.6 80.7 L 72.6 83.2 L 55.3 98 L 54.2 95.4 Z M 55.5 98.7 L 72.9 84 L 73.7 86.6 L 56.3 101.3 L 55.5 98.7 Z M 123.1 36.8 L 122.4 38.4 L 121.8 38.1 L 120.5 39 L 121.3 39.5 L 128.9 33.1 V 36.4 L 120.5 43.6 L 119.8 45.3 L 128.9 37.5 V 40.8 L 119.6 48.8 H 116.1 L 117.8 50.2 L 117.2 52.1 L 113.3 48.8 H 110.7 L 116.5 53.6 L 115.9 55.6 L 107.9 48.8 H 105.5 L 115.2 57.1 L 114.6 58.7 L 102.6 48.8 H 100.2 L 113.9 60.4 L 113.3 62.2 L 97.4 48.8 H 94.4 L 95.9 47.5 L 96.5 45.8 L 93.1 48.8 H 89.2 L 98.5 40.8 L 99.2 39.2 L 87.9 48.8 H 85 V 47.8 L 101.1 34 L 101.8 32.5 L 85 46.5 V 43.2 L 100.5 30.1 H 104.8 L 105.2 30.5 L 105.9 30.1 H 110 L 110.7 30.5 L 111.1 30.1 H 115.2 L 115.9 30.5 L 116.3 30.1 H 120.7 L 121.3 30.5 L 121.8 30.1 H 125.7 L 125 31.8 L 124.4 31.2 L 123.1 32.2 L 123.9 32.7 L 127 30.1 H 128.9 V 31.8 L 123.1 36.8 Z M 96.5 45.6 L 97.2 46.4 L 98.5 45.3 L 97.9 44.7 L 96.5 45.6 Z M 99.4 47.8 L 100 48.6 L 101.1 47.5 L 100.5 46.9 L 99.4 47.8 Z M 99.4 43.6 L 100 44.2 L 101.1 43 L 100.5 42.5 L 99.4 43.6 Z M 99.4 39 L 100 39.5 L 101.1 38.4 L 100.5 38.1 L 99.4 39 Z M 102 45.6 L 102.6 46.4 L 103.9 45.3 L 103.3 44.7 L 102 45.6 Z M 102 41.2 L 102.6 41.8 L 103.9 40.8 L 103.3 40.3 L 102 41.2 Z M 102 36.8 L 102.6 37.3 L 103.9 36.2 L 103.3 35.7 L 102 36.8 Z M 102 32.2 L 102.6 32.7 L 103.9 31.8 L 103.3 31.2 L 102 32.2 Z M 104.6 47.8 L 105.2 48.6 L 106.5 47.5 L 105.9 46.9 L 104.6 47.8 Z M 104.6 43.6 L 105.2 44.2 L 106.5 43 L 105.9 42.5 L 104.6 43.6 Z M 104.6 39 L 105.2 39.5 L 106.5 38.4 L 105.9 38.1 L 104.6 39 Z M 104.6 34.6 L 105.2 35.1 L 106.5 34 L 105.9 33.5 L 104.6 34.6 Z M 107.2 45.6 L 107.9 46.4 L 109.2 45.3 L 108.5 44.7 L 107.2 45.6 Z M 107.2 41.2 L 107.9 41.8 L 109.2 40.8 L 108.5 40.3 L 107.2 41.2 Z M 107.2 36.8 L 107.9 37.3 L 109.2 36.2 L 108.5 35.7 L 107.2 36.8 Z M 107.2 32.2 L 107.9 32.7 L 109.2 31.8 L 108.5 31.2 L 107.2 32.2 Z M 110 47.8 L 110.7 48.6 L 111.8 47.5 L 111.1 46.9 L 110 47.8 Z M 110 43.6 L 110.7 44.2 L 111.8 43 L 111.1 42.5 L 110 43.6 Z M 110 39 L 110.7 39.5 L 111.8 38.4 L 111.1 38.1 L 110 39 Z M 110 34.6 L 110.7 35.1 L 111.8 34 L 111.1 33.5 L 110 34.6 Z M 112.6 45.6 L 113.3 46.4 L 114.6 45.3 L 113.7 44.7 L 112.6 45.6 Z M 112.6 41.2 L 113.3 41.8 L 114.6 40.8 L 113.7 40.3 L 112.6 41.2 Z M 112.6 36.8 L 113.3 37.3 L 114.6 36.2 L 113.7 35.7 L 112.6 36.8 Z M 112.6 32.2 L 113.3 32.7 L 114.6 31.8 L 113.7 31.2 L 112.6 32.2 Z M 115 47.8 L 115.9 48.6 L 117.2 47.5 L 116.3 46.9 L 115 47.8 Z M 115 43.6 L 115.9 44.2 L 117.2 43 L 116.3 42.5 L 115 43.6 Z M 115 39 L 115.9 39.5 L 117.2 38.4 L 116.3 38.1 L 115 39 Z M 115 34.6 L 115.9 35.1 L 117.2 34 L 116.3 33.5 L 115 34.6 Z M 117.8 45.6 L 118.5 46.4 L 119.8 45.3 L 118.9 44.7 L 117.8 45.6 Z M 117.8 41.2 L 118.5 41.8 L 119.8 40.8 L 118.9 40.3 L 117.8 41.2 Z M 117.8 36.8 L 118.5 37.3 L 119.8 36.2 L 118.9 35.7 L 117.8 36.8 Z M 117.8 32.2 L 118.5 32.7 L 119.8 31.8 L 118.9 31.2 L 117.8 32.2 Z M 121.8 33.5 L 120.5 34.6 L 121.3 35.1 L 122.4 34 L 121.8 33.5 Z M 128.9 46.5 V 48.8 H 126.1 L 128.9 46.5 Z M 57 102.2 L 74.4 87.5 L 75.2 90.1 L 57.9 104.8 L 57 102.2 Z M 58.1 105.7 L 75.5 90.8 L 76.6 93.4 L 59.2 108.1 L 58.1 105.7 Z M 49.2 82 L 66.3 67.2 L 67.4 69.8 L 50 84.5 L 49.2 82 Z M 53.1 91.9 L 70.2 77.3 L 71.3 79.7 L 53.9 94.5 L 53.1 91.9 Z M 76.8 94.3 L 77.6 96.7 V 96.9 L 94.4 111.3 L 93.9 113.1 L 78.7 100.4 L 77.6 101.5 L 78.3 102.1 L 79.4 101.1 L 80.5 103.5 L 80.2 103.7 L 93.3 114.8 L 92.6 116.4 L 81.6 107.2 L 80.2 108.1 L 80.9 108.7 L 82 107.8 L 83.1 110.4 L 82.9 110.5 L 92 118.1 L 91.1 119.9 L 84.2 113.9 L 82.9 114.8 L 83.5 115.5 L 84.6 114.6 L 85.5 117.2 L 90.5 121.4 L 89.8 123.1 H 89.6 L 86.8 120.5 L 85.5 121.6 L 86.1 122.3 L 87.2 121.4 L 87.9 123.1 H 84.4 L 84.2 122.9 L 83.7 123.1 H 79.2 L 78.7 122.9 L 78.5 123.1 H 73.7 L 73.5 122.9 L 73.1 123.1 H 68.5 L 68.1 122.9 V 123.1 H 64.8 L 64.6 122.5 L 68.9 119 L 68.7 118.7 L 68.9 117.5 L 64.2 121.8 L 63.3 119.2 L 71.6 112.2 L 71.3 112 L 71.6 111.1 L 63.1 118.3 L 62 115.7 L 74.4 105.4 L 73.7 105.2 L 74.2 104.3 L 61.8 114.8 L 60.7 112.4 L 77 98.7 L 76.6 98.4 V 97.6 L 60.3 111.5 L 59.4 109.1 L 76.8 94.3 Z M 69.6 121.6 L 70.2 122.3 L 71.6 121.2 L 70.9 120.5 L 69.6 121.6 Z M 69.6 117.2 L 70.2 117.7 L 71.6 116.6 L 70.9 116.1 L 69.6 117.2 Z M 72.2 119.4 L 73.1 119.9 L 74.4 119 L 73.5 118.3 L 72.2 119.4 Z M 72.2 114.8 L 73.1 115.5 L 74.4 114.4 L 73.5 113.9 L 72.2 114.8 Z M 72.2 110.5 L 73.1 111.1 L 74.4 110 L 73.5 109.4 L 72.2 110.5 Z M 74.8 121.6 L 75.7 122.3 L 77 121.2 L 76.1 120.5 L 74.8 121.6 Z M 74.8 117.2 L 75.7 117.7 L 77 116.6 L 76.1 116.1 L 74.8 117.2 Z M 74.8 112.8 L 75.7 113.3 L 77 112.2 L 76.1 111.6 L 74.8 112.8 Z M 74.8 108.1 L 75.7 108.7 L 77 107.8 L 76.1 107.2 L 74.8 108.1 Z M 74.8 103.7 L 75.7 104.3 L 77 103.2 L 76.1 102.6 L 74.8 103.7 Z M 77.6 119.4 L 78.3 119.9 L 79.4 119 L 78.7 118.3 L 77.6 119.4 Z M 77.6 114.8 L 78.3 115.5 L 79.4 114.4 L 78.7 113.9 L 77.6 114.8 Z M 77.6 110.5 L 78.3 111.1 L 79.4 110 L 78.7 109.4 L 77.6 110.5 Z M 84.8 119 L 84.2 118.3 L 82.9 119.4 L 83.5 119.9 L 84.8 119 Z M 82.2 112.2 L 81.6 111.6 L 80.2 112.8 L 80.9 113.3 L 82.2 112.2 Z M 82.2 116.6 L 81.6 116.1 L 80.2 117.2 L 80.9 117.7 L 82.2 116.6 Z M 82.2 121.2 L 81.6 120.5 L 80.2 121.6 L 80.9 122.3 L 82.2 121.2 Z M 79.4 105.4 L 78.7 104.8 L 77.6 105.9 L 78.3 106.5 L 79.4 105.4 Z M 51.6 88.8 L 68.9 74 L 70 76.4 L 52.4 91.2 L 51.6 88.8 Z M 50.3 85.3 L 67.6 70.5 L 68.7 73.1 L 51.3 87.9 L 50.3 85.3 Z M 47.6 78.5 L 65.3 63.7 L 66.1 66.3 L 48.7 81 L 47.6 78.5 Z M 46.3 75.1 L 63.7 60.4 L 64.8 62.8 L 47.4 77.7 L 46.3 75.1 Z M 85 33.1 V 30.1 H 88.5 L 85 33.1 Z M 69.8 48.8 H 59.4 L 59.6 49.3 L 42.2 64.1 L 41.3 61.7 L 56.3 48.8 H 55 L 40.9 60.7 L 40 58.2 L 51.1 48.8 H 49.6 L 39.6 57.2 L 38.5 54.8 L 45.7 48.8 H 44.4 L 38.3 53.9 L 37.4 51.3 L 40.5 48.8 H 39 L 37 50.4 L 36.3 48.8 H 25.9 V 30.1 H 69.8 V 48.8 Z M 85 38.8 L 95.2 30.1 H 99.2 L 85 42.1 V 38.8 Z M 85 34.2 L 89.8 30.1 H 93.9 L 85 37.5 V 34.2 Z M 42.4 65 L 59.8 50.2 L 60.9 52.6 L 43.5 67.4 L 42.4 65 Z M 45.3 71.6 L 62.6 56.9 L 63.5 59.5 L 46.1 74.2 L 45.3 71.6 Z M 44 68.3 L 61.3 53.6 L 62.2 56 L 44.8 70.9 L 44 68.3 Z M 98.9 99.7 L 81.6 84.9 L 82.2 83.1 L 99.6 97.6 L 98.9 99.7 Z M 109.4 72.4 L 92 57.6 L 92.6 56 L 110 70.7 L 109.4 72.4 Z M 108.1 75.9 L 90.7 61.1 L 91.3 59.3 L 108.9 74 L 108.1 75.9 Z M 95 109.6 L 77.6 94.9 L 78.3 93.2 L 95.9 108 L 95 109.6 Z M 106.8 79.2 L 89.4 64.4 L 90 62.6 L 107.4 77.3 L 106.8 79.2 Z M 112 65.5 L 94.6 50.8 L 95.2 49.1 L 112.6 63.9 L 112 65.5 Z M 110.7 69 L 93.3 54.3 L 93.9 52.5 L 111.3 67.2 L 110.7 69 Z M 105.5 82.5 L 88.1 67.9 L 88.7 65.9 L 106.1 80.7 L 105.5 82.5 Z M 97.6 103 L 80.5 88.2 L 80.9 86.4 L 98.3 101.1 L 97.6 103 Z M 104.2 86 L 86.8 71.3 L 87.6 69.4 L 105 84.2 L 104.2 86 Z M 96.3 106.3 L 78.9 91.5 L 79.8 89.7 L 97.2 104.5 L 96.3 106.3 Z M 100.2 96.2 L 82.9 81.4 L 83.7 79.6 L 101.1 94.3 L 100.2 96.2 Z M 102.9 89.3 L 85.5 74.6 L 86.1 72.7 L 103.5 87.7 L 102.9 89.3 Z M 101.8 92.8 L 84.4 78.1 L 84.8 76.2 L 102.2 91 L 101.8 92.8 Z"
                fill="black" />
        </g>
    </g>
    <defs>
        <clipPath id="clip0_625_7">
            <rect width="165" height="140" fill="white" />
        </clipPath>
        <clipPath id="clip1_625_7">
            <rect width="154.5" height="140" fill="white" transform="translate(5.3)" />
        </clipPath>
        <clipPath id="clip2_625_7">
            <rect width="103" height="93.3" fill="white" transform="translate(31,23.4)" />
        </clipPath>
    </defs>
</svg>