<svg width="90" height="90" viewBox="0 0 90 90" fill="none" xmlns="http://www.w3.org/2000/svg">
<g clip-path="url(#clip0_630_22)">
<mask id="mask0_630_22" style="mask-type:luminance" maskUnits="userSpaceOnUse" x="0" y="0" width="90" height="90">
<path d="M90 0H0V90H90V0Z" fill="white"/>
</mask>
<g mask="url(#mask0_630_22)">
<mask id="mask1_630_22" style="mask-type:luminance" maskUnits="userSpaceOnUse" x="0" y="0" width="90" height="90">
<path d="M90 0H0V90H90V0Z" fill="white"/>
</mask>
<g mask="url(#mask1_630_22)">
<path opacity="0.6" d="M10 0H90V76H10V0Z" fill="#FFE599"/>
<path opacity="0.8" d="M5 12H83V84H5V12Z" fill="#FFE599"/>
<path d="M0.582902 78.0428H0V5.59277H77.4676V6.17135H0.582902V78.0428ZM90 89.9999H12.5324V89.4213H89.3588V17.4856H90V89.9999Z" fill="#F9BF4B"/>
</g>
<mask id="mask2_630_22" style="mask-type:luminance" maskUnits="userSpaceOnUse" x="13" y="17" width="64" height="57">
<path d="M77 17H13V74H77V17Z" fill="white"/>
</mask>
<g mask="url(#mask2_630_22)">
<path d="M77 26.347L74.4524 28.4852H72.1534L77 24.392V26.347ZM30.5845 56.9547L41.3961 47.974L42.0175 49.5013L31.268 58.5431L30.5845 56.9547ZM31.3922 58.9708L42.2039 49.9901L42.701 51.5785L31.8893 60.5592L31.3922 58.9708ZM73.3961 21.154L72.9612 22.1315L72.5884 21.9483L71.7806 22.4981L72.2777 22.8036L77 18.8936V20.9097L71.7806 25.3084L71.3456 26.347L77 21.5817V23.5978L71.2214 28.4852H69.0466L70.1029 29.3405L69.7301 30.5013L67.3068 28.4852H65.6913L69.2951 31.4177L68.9223 32.6396L63.9515 28.4852H62.4602L68.4874 33.556L68.1146 34.5335L60.6583 28.4852H59.167L67.6796 35.572L67.3068 36.6717L57.4272 28.4852H55.5631L56.4951 27.691L56.868 26.6524L54.7553 28.4852H52.332L58.1107 23.5978L58.5456 22.6203L51.5243 28.4852H49.7223V27.8743L59.7262 19.4434L60.1612 18.527L49.7223 27.0801V25.064L59.3534 17.0608H62.0252L62.2738 17.3052L62.7087 17.0608H65.2563L65.6913 17.3052L65.9398 17.0608H68.4874L68.9223 17.3052L69.1709 17.0608H71.9049L72.2777 17.3052L72.5884 17.0608H75.0117L74.5767 18.0994L74.2039 17.7328L73.3961 18.3437L73.8932 18.6492L75.8194 17.0608H77V18.0994L73.3961 21.154ZM56.868 26.5302L57.3029 27.019L58.1107 26.347L57.7379 25.9804L56.868 26.5302ZM58.6699 27.8743L59.0427 28.363L59.7262 27.691L59.3534 27.3245L58.6699 27.8743ZM58.6699 25.3084L59.0427 25.6749L59.7262 24.9418L59.3534 24.6364L58.6699 25.3084ZM58.6699 22.4981L59.0427 22.8036L59.7262 22.1315L59.3534 21.9483L58.6699 22.4981ZM60.2854 26.5302L60.6583 27.019L61.466 26.347L61.0932 25.9804L60.2854 26.5302ZM60.2854 23.8421L60.6583 24.2087L61.466 23.5978L61.0932 23.2923L60.2854 23.8421ZM60.2854 21.154L60.6583 21.4595L61.466 20.7875L61.0932 20.482L60.2854 21.154ZM60.2854 18.3437L60.6583 18.6492L61.466 18.0994L61.0932 17.7328L60.2854 18.3437ZM61.901 27.8743L62.2738 28.363L63.0816 27.691L62.7087 27.3245L61.901 27.8743ZM61.901 25.3084L62.2738 25.6749L63.0816 24.9418L62.7087 24.6364L61.901 25.3084ZM61.901 22.4981L62.2738 22.8036L63.0816 22.1315L62.7087 21.9483L61.901 22.4981ZM61.901 19.81L62.2738 20.1155L63.0816 19.4434L62.7087 19.138L61.901 19.81ZM63.5165 26.5302L63.9515 27.019L64.7592 26.347L64.3243 25.9804L63.5165 26.5302ZM63.5165 23.8421L63.9515 24.2087L64.7592 23.5978L64.3243 23.2923L63.5165 23.8421ZM63.5165 21.154L63.9515 21.4595L64.7592 20.7875L64.3243 20.482L63.5165 21.154ZM63.5165 18.3437L63.9515 18.6492L64.7592 18.0994L64.3243 17.7328L63.5165 18.3437ZM65.2563 27.8743L65.6913 28.363L66.3748 27.691L65.9398 27.3245L65.2563 27.8743ZM65.2563 25.3084L65.6913 25.6749L66.3748 24.9418L65.9398 24.6364L65.2563 25.3084ZM65.2563 22.4981L65.6913 22.8036L66.3748 22.1315L65.9398 21.9483L65.2563 22.4981ZM65.2563 19.81L65.6913 20.1155L66.3748 19.4434L65.9398 19.138L65.2563 19.81ZM66.8718 26.5302L67.3068 27.019L68.1146 26.347L67.5553 25.9804L66.8718 26.5302ZM66.8718 23.8421L67.3068 24.2087L68.1146 23.5978L67.5553 23.2923L66.8718 23.8421ZM66.8718 21.154L67.3068 21.4595L68.1146 20.7875L67.5553 20.482L66.8718 21.154ZM66.8718 18.3437L67.3068 18.6492L68.1146 18.0994L67.5553 17.7328L66.8718 18.3437ZM68.3631 27.8743L68.9223 28.363L69.7301 27.691L69.1709 27.3245L68.3631 27.8743ZM68.3631 25.3084L68.9223 25.6749L69.7301 24.9418L69.1709 24.6364L68.3631 25.3084ZM68.3631 22.4981L68.9223 22.8036L69.7301 22.1315L69.1709 21.9483L68.3631 22.4981ZM68.3631 19.81L68.9223 20.1155L69.7301 19.4434L69.1709 19.138L68.3631 19.81ZM70.1029 26.5302L70.5379 27.019L71.3456 26.347L70.7864 25.9804L70.1029 26.5302ZM70.1029 23.8421L70.5379 24.2087L71.3456 23.5978L70.7864 23.2923L70.1029 23.8421ZM70.1029 21.154L70.5379 21.4595L71.3456 20.7875L70.7864 20.482L70.1029 21.154ZM70.1029 18.3437L70.5379 18.6492L71.3456 18.0994L70.7864 17.7328L70.1029 18.3437ZM72.5884 19.138L71.7806 19.81L72.2777 20.1155L72.9612 19.4434L72.5884 19.138ZM77 27.0801V28.4852H75.2602L77 27.0801ZM32.3243 61.109L43.1359 52.1283L43.633 53.7167L32.8835 62.6974L32.3243 61.109ZM33.0078 63.2473L43.8194 54.1444L44.5029 55.7328L33.6913 64.7135L33.0078 63.2473ZM27.4777 48.7682L38.1029 39.7264L38.7864 41.3148L27.9748 50.2955L27.4777 48.7682ZM29.901 54.8164L40.5262 45.8968L41.2097 47.363L30.3981 56.4048L29.901 54.8164ZM44.6272 56.2827L45.1243 57.7489V57.8711L55.5631 66.6685L55.2524 67.7682L45.8078 60.0093L45.1243 60.6814L45.5592 61.0479L46.2427 60.437L46.9262 61.9032L46.7398 62.0254L54.8796 68.8068L54.4447 69.7843L47.6097 64.1637L46.7398 64.7135L47.1748 65.0801L47.8583 64.5302L48.5417 66.1187L48.4175 66.1798L54.0718 70.8228L53.5126 71.9225L49.2252 68.2569L48.4175 68.8068L48.7903 69.2344L49.4738 68.6846L50.033 70.273L53.1398 72.8389L52.7049 73.8775H52.5806L50.8408 72.2891L50.033 72.9611L50.4058 73.3888L51.0893 72.8389L51.5243 73.8775H49.3495L49.2252 73.7553L48.9146 73.8775H46.1184L45.8078 73.7553L45.6835 73.8775H42.701L42.5767 73.7553L42.3282 73.8775H39.4699L39.2214 73.7553V73.8775H37.1709L37.0466 73.511L39.7184 71.3727L39.5942 71.1894L39.7184 70.4563L36.7981 73.0833L36.2388 71.4949L41.3961 67.2183L41.2097 67.0962L41.3961 66.5463L36.1146 70.945L35.4311 69.3566L43.1359 63.064L42.701 62.9418L43.0117 62.392L35.3068 68.8068L34.6233 67.3405L44.7515 58.9708L44.5029 58.7875V58.2987L34.3748 66.7907L33.8155 65.3245L44.6272 56.2827ZM40.1534 72.9611L40.5262 73.3888L41.3961 72.7167L40.9612 72.2891L40.1534 72.9611ZM40.1534 70.273L40.5262 70.5785L41.3961 69.9064L40.9612 69.601L40.1534 70.273ZM41.7689 71.6171L42.3282 71.9225L43.1359 71.3727L42.5767 70.945L41.7689 71.6171ZM41.7689 68.8068L42.3282 69.2344L43.1359 68.5624L42.5767 68.2569L41.7689 68.8068ZM41.7689 66.1798L42.3282 66.5463L43.1359 65.8743L42.5767 65.5077L41.7689 66.1798ZM43.3845 72.9611L43.9437 73.3888L44.7515 72.7167L44.1922 72.2891L43.3845 72.9611ZM43.3845 70.273L43.9437 70.5785L44.7515 69.9064L44.1922 69.601L43.3845 70.273ZM43.3845 67.5849L43.9437 67.8904L44.7515 67.2183L44.1922 66.8518L43.3845 67.5849ZM43.3845 64.7135L43.9437 65.0801L44.7515 64.5302L44.1922 64.1637L43.3845 64.7135ZM43.3845 62.0254L43.9437 62.392L44.7515 61.72L44.1922 61.3534L43.3845 62.0254ZM45.1243 71.6171L45.5592 71.9225L46.2427 71.3727L45.8078 70.945L45.1243 71.6171ZM45.1243 68.8068L45.5592 69.2344L46.2427 68.5624L45.8078 68.2569L45.1243 68.8068ZM45.1243 66.1798L45.5592 66.5463L46.2427 65.8743L45.8078 65.5077L45.1243 66.1798ZM49.5981 71.3727L49.2252 70.945L48.4175 71.6171L48.7903 71.9225L49.5981 71.3727ZM47.9825 67.2183L47.6097 66.8518L46.7398 67.5849L47.1748 67.8904L47.9825 67.2183ZM47.9825 69.9064L47.6097 69.601L46.7398 70.273L47.1748 70.5785L47.9825 69.9064ZM47.9825 72.7167L47.6097 72.2891L46.7398 72.9611L47.1748 73.3888L47.9825 72.7167ZM46.2427 63.064L45.8078 62.6974L45.1243 63.3695L45.5592 63.736L46.2427 63.064ZM28.9689 52.9225L39.7184 43.8807L40.4019 45.347L29.466 54.3888L28.9689 52.9225ZM28.1612 50.7843L38.9107 41.7425L39.5942 43.3309L28.7825 52.3727L28.1612 50.7843ZM26.4835 46.6299L37.4816 37.5881L37.9786 39.1765L27.167 48.1573L26.4835 46.6299ZM25.6757 44.5528L36.4874 35.572L37.1709 37.0383L26.3592 46.1412L25.6757 44.5528ZM49.7223 18.8936V17.0608H51.8971L49.7223 18.8936ZM40.2777 28.4852H33.8155L33.9398 28.7907L23.1282 37.8325L22.5689 36.3663L31.8893 28.4852H31.0816L22.3204 35.7553L21.7612 34.228L28.6583 28.4852H27.7262L21.5126 33.6171L20.8291 32.1508L25.3029 28.4852H24.4951L20.7049 31.601L20.1456 30.0126L22.0718 28.4852H21.1398L19.8971 29.4627L19.4621 28.4852H13V17.0608H40.2777V28.4852ZM49.7223 22.3759L56.0602 17.0608H58.5456L49.7223 24.392V22.3759ZM49.7223 19.5656L52.7049 17.0608H55.2524L49.7223 21.5817V19.5656ZM23.2524 38.3823L34.0641 29.3405L34.7476 30.8068L23.9359 39.8486L23.2524 38.3823ZM25.0544 42.4145L35.8039 33.4338L36.3631 35.0222L25.5515 44.0029L25.0544 42.4145ZM24.2466 40.3984L34.9961 31.4177L35.5553 32.8839L24.7437 41.9868L24.2466 40.3984ZM58.3592 59.5817L47.6097 50.5399L47.9825 49.4402L58.7942 58.2987L58.3592 59.5817ZM64.8835 42.9032L54.0718 33.8614L54.4447 32.8839L65.2563 41.8646L64.8835 42.9032ZM64.0757 45.0415L53.2641 35.9997L53.6369 34.9L64.5728 43.8807L64.0757 45.0415ZM55.9359 65.6299L45.1243 56.6492L45.5592 55.6106L56.4951 64.6524L55.9359 65.6299ZM63.268 47.0576L52.4563 38.0158L52.8291 36.9161L63.6408 45.8968L63.268 47.0576ZM66.499 38.6878L55.6874 29.7071L56.0602 28.6685L66.8718 37.7103L66.499 38.6878ZM65.6913 40.8261L54.8796 31.8454L55.2524 30.7457L66.0641 39.7264L65.6913 40.8261ZM62.4602 49.0737L51.6485 40.154L52.0214 38.9322L62.833 47.974L62.4602 49.0737ZM57.5515 61.5978L46.9262 52.556L47.1748 51.4563L57.9864 60.437L57.5515 61.5978ZM61.6524 51.2119L50.8408 42.2312L51.3379 41.0704L62.1495 50.1122L61.6524 51.2119ZM56.7437 63.6138L45.932 54.572L46.4913 53.4724L57.3029 62.5142L56.7437 63.6138ZM59.167 57.4434L48.4175 48.4016L48.9146 47.3019L59.7262 56.2827L59.167 57.4434ZM60.8447 53.228L50.033 44.2473L50.4058 43.0865L61.2175 52.2505L60.8447 53.228ZM60.1612 55.3663L49.3495 46.3855L49.5981 45.2248L60.4097 54.2666L60.1612 55.3663Z" fill="black"/>
</g>
</g>
</g>
<defs>
<clipPath id="clip0_630_22">
<rect width="90" height="90" fill="white"/>
</clipPath>
</defs>
</svg>
