<svg width="165" height="140" viewBox="0 0 165 140" fill="none" xmlns="http://www.w3.org/2000/svg">
<g clip-path="url(#clip0_625_7)">
<g clip-path="url(#clip1_625_7)">
<path opacity="0.6" d="M 27.4 0 H 159.8 V 112.4 H 27.4 V 0 Z" fill="#ffe599"/>
<path opacity="0.8" d="M 16.5 18.3 H 149 V 130.6 H 16.5 V 18.3 Z" fill="#ffe599"/>
<path d="M 6.3 121.4 H 5.3 V 8.7 H 138.2 V 9.6 H 6.3 V 121.4 Z M 159.7 140 H 26.8 V 139.1 H 158.6 V 27.2 H 159.7 V 140 Z" fill="#f9bf4b"/>
</g>
<g clip-path="url(#clip2_625_7)">
<path d="M 134 38.7 L 129.9 42.2 H 126.2 L 134 35.5 V 38.7 Z M 59.3 88.8 L 76.7 74.1 L 77.7 76.6 L 60.4 91.4 L 59.3 88.8 Z M 60.6 92.1 L 78 77.4 L 78.8 80 L 61.4 94.7 L 60.6 92.1 Z M 128.2 30.2 L 127.5 31.8 L 126.9 31.5 L 125.6 32.4 L 126.4 32.9 L 134 26.5 V 29.8 L 125.6 37 L 124.9 38.7 L 134 30.9 V 34.2 L 124.7 42.2 H 121.2 L 122.9 43.6 L 122.3 45.5 L 118.4 42.2 H 115.8 L 121.6 47 L 121 49 L 113 42.2 H 110.6 L 120.3 50.5 L 119.7 52.1 L 107.7 42.2 H 105.3 L 119 53.8 L 118.4 55.6 L 102.5 42.2 H 99.5 L 101 40.9 L 101.6 39.2 L 98.2 42.2 H 94.3 L 103.6 34.2 L 104.3 32.6 L 93 42.2 H 90.1 V 41.2 L 106.2 27.4 L 106.9 25.9 L 90.1 39.9 V 36.6 L 105.6 23.5 H 109.9 L 110.3 23.9 L 111 23.5 H 115.1 L 115.8 23.9 L 116.2 23.5 H 120.3 L 121 23.9 L 121.4 23.5 H 125.8 L 126.4 23.9 L 126.9 23.5 H 130.8 L 130.1 25.2 L 129.5 24.6 L 128.2 25.6 L 129 26.1 L 132.1 23.5 H 134 V 25.2 L 128.2 30.2 Z M 101.6 39 L 102.3 39.8 L 103.6 38.7 L 103 38.1 L 101.6 39 Z M 104.5 41.2 L 105.1 42 L 106.2 40.9 L 105.6 40.3 L 104.5 41.2 Z M 104.5 37 L 105.1 37.6 L 106.2 36.4 L 105.6 35.9 L 104.5 37 Z M 104.5 32.4 L 105.1 32.9 L 106.2 31.8 L 105.6 31.5 L 104.5 32.4 Z M 107.1 39 L 107.7 39.8 L 109 38.7 L 108.4 38.1 L 107.1 39 Z M 107.1 34.6 L 107.7 35.2 L 109 34.2 L 108.4 33.7 L 107.1 34.6 Z M 107.1 30.2 L 107.7 30.7 L 109 29.6 L 108.4 29.1 L 107.1 30.2 Z M 107.1 25.6 L 107.7 26.1 L 109 25.2 L 108.4 24.6 L 107.1 25.6 Z M 109.7 41.2 L 110.3 42 L 111.6 40.9 L 111 40.3 L 109.7 41.2 Z M 109.7 37 L 110.3 37.6 L 111.6 36.4 L 111 35.9 L 109.7 37 Z M 109.7 32.4 L 110.3 32.9 L 111.6 31.8 L 111 31.5 L 109.7 32.4 Z M 109.7 28 L 110.3 28.5 L 111.6 27.4 L 111 26.9 L 109.7 28 Z M 112.3 39 L 113 39.8 L 114.3 38.7 L 113.6 38.1 L 112.3 39 Z M 112.3 34.6 L 113 35.2 L 114.3 34.2 L 113.6 33.7 L 112.3 34.6 Z M 112.3 30.2 L 113 30.7 L 114.3 29.6 L 113.6 29.1 L 112.3 30.2 Z M 112.3 25.6 L 113 26.1 L 114.3 25.2 L 113.6 24.6 L 112.3 25.6 Z M 115.1 41.2 L 115.8 42 L 116.9 40.9 L 116.2 40.3 L 115.1 41.2 Z M 115.1 37 L 115.8 37.6 L 116.9 36.4 L 116.2 35.9 L 115.1 37 Z M 115.1 32.4 L 115.8 32.9 L 116.9 31.8 L 116.2 31.5 L 115.1 32.4 Z M 115.1 28 L 115.8 28.5 L 116.9 27.4 L 116.2 26.9 L 115.1 28 Z M 117.7 39 L 118.4 39.8 L 119.7 38.7 L 118.8 38.1 L 117.7 39 Z M 117.7 34.6 L 118.4 35.2 L 119.7 34.2 L 118.8 33.7 L 117.7 34.6 Z M 117.7 30.2 L 118.4 30.7 L 119.7 29.6 L 118.8 29.1 L 117.7 30.2 Z M 117.7 25.6 L 118.4 26.1 L 119.7 25.2 L 118.8 24.6 L 117.7 25.6 Z M 120.1 41.2 L 121 42 L 122.3 40.9 L 121.4 40.3 L 120.1 41.2 Z M 120.1 37 L 121 37.6 L 122.3 36.4 L 121.4 35.9 L 120.1 37 Z M 120.1 32.4 L 121 32.9 L 122.3 31.8 L 121.4 31.5 L 120.1 32.4 Z M 120.1 28 L 121 28.5 L 122.3 27.4 L 121.4 26.9 L 120.1 28 Z M 122.9 39 L 123.6 39.8 L 124.9 38.7 L 124 38.1 L 122.9 39 Z M 122.9 34.6 L 123.6 35.2 L 124.9 34.2 L 124 33.7 L 122.9 34.6 Z M 122.9 30.2 L 123.6 30.7 L 124.9 29.6 L 124 29.1 L 122.9 30.2 Z M 122.9 25.6 L 123.6 26.1 L 124.9 25.2 L 124 24.6 L 122.9 25.6 Z M 126.9 26.9 L 125.6 28 L 126.4 28.5 L 127.5 27.4 L 126.9 26.9 Z M 134 39.9 V 42.2 H 131.2 L 134 39.9 Z M 62.1 95.6 L 79.5 80.9 L 80.3 83.5 L 63 98.2 L 62.1 95.6 Z M 63.2 99.1 L 80.6 84.2 L 81.7 86.8 L 64.3 101.5 L 63.2 99.1 Z M 54.3 75.4 L 71.4 60.6 L 72.5 63.2 L 55.1 77.9 L 54.3 75.4 Z M 58.2 85.3 L 75.3 70.7 L 76.4 73.1 L 59 87.9 L 58.2 85.3 Z M 81.9 87.7 L 82.7 90.1 V 90.3 L 99.5 104.7 L 99 106.5 L 83.8 93.8 L 82.7 94.9 L 83.4 95.5 L 84.5 94.5 L 85.6 96.9 L 85.3 97.1 L 98.4 108.2 L 97.7 109.8 L 86.7 100.6 L 85.3 101.5 L 86 102.1 L 87.1 101.2 L 88.2 103.8 L 88 103.9 L 97.1 111.5 L 96.2 113.3 L 89.3 107.3 L 88 108.2 L 88.6 108.9 L 89.7 108 L 90.6 110.6 L 95.6 114.8 L 94.9 116.5 H 94.7 L 91.9 113.9 L 90.6 115 L 91.2 115.7 L 92.3 114.8 L 93 116.5 H 89.5 L 89.3 116.3 L 88.8 116.5 H 84.3 L 83.8 116.3 L 83.6 116.5 H 78.8 L 78.6 116.3 L 78.2 116.5 H 73.6 L 73.2 116.3 V 116.5 H 69.9 L 69.7 115.9 L 74 112.4 L 73.8 112.1 L 74 110.9 L 69.3 115.2 L 68.4 112.6 L 76.7 105.6 L 76.4 105.4 L 76.7 104.5 L 68.2 111.7 L 67.1 109.1 L 79.5 98.8 L 78.8 98.6 L 79.3 97.7 L 66.9 108.2 L 65.8 105.8 L 82.1 92.1 L 81.7 91.8 V 91 L 65.4 104.9 L 64.5 102.5 L 81.9 87.7 Z M 74.7 115 L 75.3 115.7 L 76.7 114.6 L 76 113.9 L 74.7 115 Z M 74.7 110.6 L 75.3 111.1 L 76.7 110 L 76 109.5 L 74.7 110.6 Z M 77.3 112.8 L 78.2 113.3 L 79.5 112.4 L 78.6 111.7 L 77.3 112.8 Z M 77.3 108.2 L 78.2 108.9 L 79.5 107.8 L 78.6 107.3 L 77.3 108.2 Z M 77.3 103.9 L 78.2 104.5 L 79.5 103.4 L 78.6 102.8 L 77.3 103.9 Z M 79.9 115 L 80.8 115.7 L 82.1 114.6 L 81.2 113.9 L 79.9 115 Z M 79.9 110.6 L 80.8 111.1 L 82.1 110 L 81.2 109.5 L 79.9 110.6 Z M 79.9 106.2 L 80.8 106.7 L 82.1 105.6 L 81.2 105 L 79.9 106.2 Z M 79.9 101.5 L 80.8 102.1 L 82.1 101.2 L 81.2 100.6 L 79.9 101.5 Z M 79.9 97.1 L 80.8 97.7 L 82.1 96.6 L 81.2 96 L 79.9 97.1 Z M 82.7 112.8 L 83.4 113.3 L 84.5 112.4 L 83.8 111.7 L 82.7 112.8 Z M 82.7 108.2 L 83.4 108.9 L 84.5 107.8 L 83.8 107.3 L 82.7 108.2 Z M 82.7 103.9 L 83.4 104.5 L 84.5 103.4 L 83.8 102.8 L 82.7 103.9 Z M 89.9 112.4 L 89.3 111.7 L 88 112.8 L 88.6 113.3 L 89.9 112.4 Z M 87.3 105.6 L 86.7 105 L 85.3 106.2 L 86 106.7 L 87.3 105.6 Z M 87.3 110 L 86.7 109.5 L 85.3 110.6 L 86 111.1 L 87.3 110 Z M 87.3 114.6 L 86.7 113.9 L 85.3 115 L 86 115.7 L 87.3 114.6 Z M 84.5 98.8 L 83.8 98.2 L 82.7 99.3 L 83.4 99.9 L 84.5 98.8 Z M 56.7 82.2 L 74 67.4 L 75.1 69.8 L 57.5 84.6 L 56.7 82.2 Z M 55.4 78.7 L 72.7 63.9 L 73.8 66.5 L 56.4 81.3 L 55.4 78.7 Z M 52.7 71.9 L 70.4 57.1 L 71.2 59.7 L 53.8 74.4 L 52.7 71.9 Z M 51.4 68.5 L 68.8 53.8 L 69.9 56.2 L 52.5 71.1 L 51.4 68.5 Z M 90.1 26.5 V 23.5 H 93.6 L 90.1 26.5 Z M 74.9 42.2 H 64.5 L 64.7 42.7 L 47.3 57.5 L 46.4 55.1 L 61.4 42.2 H 60.1 L 46 54.1 L 45.1 51.6 L 56.2 42.2 H 54.7 L 44.7 50.6 L 43.6 48.2 L 50.8 42.2 H 49.5 L 43.4 47.3 L 42.5 44.7 L 45.6 42.2 H 44.1 L 42.1 43.8 L 41.4 42.2 H 31 V 23.5 H 74.9 V 42.2 Z M 90.1 32.2 L 100.3 23.5 H 104.3 L 90.1 35.5 V 32.2 Z M 90.1 27.6 L 94.9 23.5 H 99 L 90.1 30.9 V 27.6 Z M 47.5 58.4 L 64.9 43.6 L 66 46 L 48.6 60.8 L 47.5 58.4 Z M 50.4 65 L 67.7 50.3 L 68.6 52.9 L 51.2 67.6 L 50.4 65 Z M 49.1 61.7 L 66.4 47 L 67.3 49.4 L 49.9 64.3 L 49.1 61.7 Z M 104 93.1 L 86.7 78.3 L 87.3 76.5 L 104.7 91 L 104 93.1 Z M 114.5 65.8 L 97.1 51 L 97.7 49.4 L 115.1 64.1 L 114.5 65.8 Z M 113.2 69.3 L 95.8 54.5 L 96.4 52.7 L 114 67.4 L 113.2 69.3 Z M 100.1 103 L 82.7 88.3 L 83.4 86.6 L 101 101.4 L 100.1 103 Z M 111.9 72.6 L 94.5 57.8 L 95.1 56 L 112.5 70.7 L 111.9 72.6 Z M 117.1 58.9 L 99.7 44.2 L 100.3 42.5 L 117.7 57.3 L 117.1 58.9 Z M 115.8 62.4 L 98.4 47.7 L 99 45.9 L 116.4 60.6 L 115.8 62.4 Z M 110.6 75.9 L 93.2 61.3 L 93.8 59.3 L 111.2 74.1 L 110.6 75.9 Z M 102.7 96.4 L 85.6 81.6 L 86 79.8 L 103.4 94.5 L 102.7 96.4 Z M 109.3 79.4 L 91.9 64.7 L 92.7 62.8 L 110.1 77.6 L 109.3 79.4 Z M 101.4 99.7 L 84 84.9 L 84.9 83.1 L 102.3 97.9 L 101.4 99.7 Z M 105.3 89.6 L 88 74.8 L 88.8 73 L 106.2 87.7 L 105.3 89.6 Z M 108 82.7 L 90.6 68 L 91.2 66.1 L 108.6 81.1 L 108 82.7 Z M 106.9 86.2 L 89.5 71.5 L 89.9 69.6 L 107.3 84.4 L 106.9 86.2 Z" fill="black"/>
</g>
</g>
<defs>
<clipPath id="clip0_625_7">
<rect width="165" height="140" fill="white"/>
</clipPath>
<clipPath id="clip1_625_7">
<rect width="154.5" height="140" fill="white" transform="translate(5.3)"/>
</clipPath>
<clipPath id="clip2_625_7">
<rect width="103" height="93.3" fill="white" transform="translate(31,23.4)"/>
</clipPath>
</defs>
</svg>
