<svg width="75" height="75" viewBox="0 0 75 75" fill="none" xmlns="http://www.w3.org/2000/svg">
<path d="M0 0H75V75H0V0Z" fill="#09252B"/>
<g clip-path="url(#clip0_633_60)">
<mask id="mask0_633_60" style="mask-type:luminance" maskUnits="userSpaceOnUse" x="13" y="12" width="50" height="50">
<path d="M63 12H13V62H63V12Z" fill="white"/>
</mask>
<g mask="url(#mask0_633_60)">
<mask id="mask1_633_60" style="mask-type:luminance" maskUnits="userSpaceOnUse" x="13" y="12" width="50" height="50">
<path d="M63 12H13V62H63V12Z" fill="white"/>
</mask>
<g mask="url(#mask1_633_60)">
<path opacity="0.6" d="M18.5557 12H63.0001V54.2222H18.5557V12Z" fill="#FFE599"/>
<path opacity="0.8" d="M15.7773 18.6665H59.1107V58.6665H15.7773V18.6665Z" fill="#FFE599"/>
<path d="M13.3238 55.3569H13V15.1069H56.0376V15.4284H13.3238V55.3569ZM63 61.9998H19.9624V61.6784H62.6438V21.7141H63V61.9998Z" fill="#F9BF4B"/>
</g>
<mask id="mask2_633_60" style="mask-type:luminance" maskUnits="userSpaceOnUse" x="20" y="21" width="36" height="33">
<path d="M55.7782 21.4443H20.2227V53.111H55.7782V21.4443Z" fill="white"/>
</mask>
<g mask="url(#mask2_633_60)">
<path d="M55.7782 26.637L54.3629 27.8249H53.0857L55.7782 25.5509V26.637ZM29.9918 43.6413L35.9983 38.652L36.3435 39.5005L30.3715 44.5238L29.9918 43.6413ZM30.4406 44.7613L36.447 39.7721L36.7232 40.6545L30.7167 45.6438L30.4406 44.7613ZM53.7761 23.7521L53.5344 24.2951L53.3273 24.1933L52.8785 24.4987L53.1547 24.6685L55.7782 22.4962V23.6163L52.8785 26.06L52.6369 26.637L55.7782 23.9896V25.1097L52.5679 27.8249H51.3597L51.9465 28.3001L51.7394 28.945L50.3931 27.8249H49.4956L51.4977 29.4541L51.2906 30.1329L48.529 27.8249H47.7005L51.049 30.642L50.8419 31.1851L46.6995 27.8249H45.871L50.6002 31.7621L50.3931 32.373L44.9044 27.8249H43.8688L44.3866 27.3837L44.5937 26.8067L43.4201 27.8249H42.0738L45.2841 25.1097L45.5258 24.5666L41.625 27.8249H40.624V27.4855L46.1817 22.8017L46.4233 22.2926L40.624 27.0443V25.9243L45.9745 21.478H47.4589L47.597 21.6138L47.8386 21.478H49.2539L49.4956 21.6138L49.6337 21.478H51.049L51.2906 21.6138L51.4287 21.478H52.9476L53.1547 21.6138L53.3273 21.478H54.6736L54.4319 22.055L54.2248 21.8514L53.7761 22.1908L54.0522 22.3605L55.1223 21.478H55.7782V22.055L53.7761 23.7521ZM44.5937 26.7388L44.8354 27.0104L45.2841 26.637L45.077 26.4334L44.5937 26.7388ZM45.5948 27.4855L45.8019 27.7571L46.1817 27.3837L45.9745 27.1801L45.5948 27.4855ZM45.5948 26.06L45.8019 26.2637L46.1817 25.8564L45.9745 25.6867L45.5948 26.06ZM45.5948 24.4987L45.8019 24.6685L46.1817 24.2951L45.9745 24.1933L45.5948 24.4987ZM46.4923 26.7388L46.6995 27.0104L47.1482 26.637L46.9411 26.4334L46.4923 26.7388ZM46.4923 25.2454L46.6995 25.4491L47.1482 25.1097L46.9411 24.94L46.4923 25.2454ZM46.4923 23.7521L46.6995 23.9218L47.1482 23.5484L46.9411 23.3787L46.4923 23.7521ZM46.4923 22.1908L46.6995 22.3605L47.1482 22.055L46.9411 21.8514L46.4923 22.1908ZM47.3899 27.4855L47.597 27.7571L48.0457 27.3837L47.8386 27.1801L47.3899 27.4855ZM47.3899 26.06L47.597 26.2637L48.0457 25.8564L47.8386 25.6867L47.3899 26.06ZM47.3899 24.4987L47.597 24.6685L48.0457 24.2951L47.8386 24.1933L47.3899 24.4987ZM47.3899 23.0054L47.597 23.1751L48.0457 22.8017L47.8386 22.632L47.3899 23.0054ZM48.2874 26.7388L48.529 27.0104L48.9778 26.637L48.7361 26.4334L48.2874 26.7388ZM48.2874 25.2454L48.529 25.4491L48.9778 25.1097L48.7361 24.94L48.2874 25.2454ZM48.2874 23.7521L48.529 23.9218L48.9778 23.5484L48.7361 23.3787L48.2874 23.7521ZM48.2874 22.1908L48.529 22.3605L48.9778 22.055L48.7361 21.8514L48.2874 22.1908ZM49.2539 27.4855L49.4956 27.7571L49.8753 27.3837L49.6337 27.1801L49.2539 27.4855ZM49.2539 26.06L49.4956 26.2637L49.8753 25.8564L49.6337 25.6867L49.2539 26.06ZM49.2539 24.4987L49.4956 24.6685L49.8753 24.2951L49.6337 24.1933L49.2539 24.4987ZM49.2539 23.0054L49.4956 23.1751L49.8753 22.8017L49.6337 22.632L49.2539 23.0054ZM50.1515 26.7388L50.3931 27.0104L50.8419 26.637L50.5312 26.4334L50.1515 26.7388ZM50.1515 25.2454L50.3931 25.4491L50.8419 25.1097L50.5312 24.94L50.1515 25.2454ZM50.1515 23.7521L50.3931 23.9218L50.8419 23.5484L50.5312 23.3787L50.1515 23.7521ZM50.1515 22.1908L50.3931 22.3605L50.8419 22.055L50.5312 21.8514L50.1515 22.1908ZM50.9799 27.4855L51.2906 27.7571L51.7394 27.3837L51.4287 27.1801L50.9799 27.4855ZM50.9799 26.06L51.2906 26.2637L51.7394 25.8564L51.4287 25.6867L50.9799 26.06ZM50.9799 24.4987L51.2906 24.6685L51.7394 24.2951L51.4287 24.1933L50.9799 24.4987ZM50.9799 23.0054L51.2906 23.1751L51.7394 22.8017L51.4287 22.632L50.9799 23.0054ZM51.9465 26.7388L52.1881 27.0104L52.6369 26.637L52.3262 26.4334L51.9465 26.7388ZM51.9465 25.2454L52.1881 25.4491L52.6369 25.1097L52.3262 24.94L51.9465 25.2454ZM51.9465 23.7521L52.1881 23.9218L52.6369 23.5484L52.3262 23.3787L51.9465 23.7521ZM51.9465 22.1908L52.1881 22.3605L52.6369 22.055L52.3262 21.8514L51.9465 22.1908ZM53.3273 22.632L52.8785 23.0054L53.1547 23.1751L53.5344 22.8017L53.3273 22.632ZM55.7782 27.0443V27.8249H54.8117L55.7782 27.0443ZM30.9584 45.9493L36.9648 40.96L37.241 41.8424L31.269 46.8317L30.9584 45.9493ZM31.3381 47.1372L37.3446 42.08L37.7243 42.9625L31.7178 47.9518L31.3381 47.1372ZM28.2658 39.0932L34.1687 34.07L34.5484 34.9525L28.542 39.9418L28.2658 39.0932ZM29.6121 42.4534L35.515 37.498L35.8947 38.3126L29.8882 43.3358L29.6121 42.4534ZM37.7933 43.268L38.0695 44.0825V44.1504L43.8688 49.0379L43.6962 49.6488L38.4492 45.3383L38.0695 45.7117L38.3111 45.9153L38.6908 45.5759L39.0706 46.3905L38.967 46.4584L43.4891 50.2258L43.2475 50.7688L39.4503 47.6463L38.967 47.9518L39.2086 48.1554L39.5884 47.8499L39.9681 48.7324L39.899 48.7663L43.0403 51.3458L42.7297 51.9568L40.3478 49.9203L39.899 50.2258L40.1062 50.4634L40.4859 50.1579L40.7966 51.0404L42.5225 52.4659L42.2809 53.0429H42.2119L41.2453 52.1604L40.7966 52.5338L41.0037 52.7713L41.3834 52.4659L41.625 53.0429H40.4168L40.3478 52.975L40.1752 53.0429H38.6218L38.4492 52.975L38.3802 53.0429H36.7232L36.6542 52.975L36.5161 53.0429H34.9282L34.7901 52.975V53.0429H33.6509L33.5819 52.8392L35.0662 51.6513L34.9972 51.5495L35.0662 51.1422L33.4438 52.6016L33.1331 51.7192L35.9983 49.3433L35.8947 49.2755L35.9983 48.97L33.0641 51.4137L32.6844 50.5313L36.9648 47.0354L36.7232 46.9675L36.8958 46.662L32.6153 50.2258L32.2356 49.4112L37.8624 44.7613L37.7243 44.6595V44.388L32.0975 49.1058L31.7868 48.2912L37.7933 43.268ZM35.3079 52.5338L35.515 52.7713L35.9983 52.398L35.7566 52.1604L35.3079 52.5338ZM35.3079 51.0404L35.515 51.2101L35.9983 50.8367L35.7566 50.667L35.3079 51.0404ZM36.2054 51.7871L36.5161 51.9568L36.9648 51.6513L36.6542 51.4137L36.2054 51.7871ZM36.2054 50.2258L36.5161 50.4634L36.9648 50.09L36.6542 49.9203L36.2054 50.2258ZM36.2054 48.7663L36.5161 48.97L36.9648 48.5966L36.6542 48.393L36.2054 48.7663ZM37.1029 52.5338L37.4136 52.7713L37.8624 52.398L37.5517 52.1604L37.1029 52.5338ZM37.1029 51.0404L37.4136 51.2101L37.8624 50.8367L37.5517 50.667L37.1029 51.0404ZM37.1029 49.547L37.4136 49.7167L37.8624 49.3433L37.5517 49.1397L37.1029 49.547ZM37.1029 47.9518L37.4136 48.1554L37.8624 47.8499L37.5517 47.6463L37.1029 47.9518ZM37.1029 46.4584L37.4136 46.662L37.8624 46.2887L37.5517 46.085L37.1029 46.4584ZM38.0695 51.7871L38.3111 51.9568L38.6908 51.6513L38.4492 51.4137L38.0695 51.7871ZM38.0695 50.2258L38.3111 50.4634L38.6908 50.09L38.4492 49.9203L38.0695 50.2258ZM38.0695 48.7663L38.3111 48.97L38.6908 48.5966L38.4492 48.393L38.0695 48.7663ZM40.5549 51.6513L40.3478 51.4137L39.899 51.7871L40.1062 51.9568L40.5549 51.6513ZM39.6574 49.3433L39.4503 49.1397L38.967 49.547L39.2086 49.7167L39.6574 49.3433ZM39.6574 50.8367L39.4503 50.667L38.967 51.0404L39.2086 51.2101L39.6574 50.8367ZM39.6574 52.398L39.4503 52.1604L38.967 52.5338L39.2086 52.7713L39.6574 52.398ZM38.6908 47.0354L38.4492 46.8317L38.0695 47.2051L38.3111 47.4087L38.6908 47.0354ZM29.0943 41.4012L35.0662 36.378L35.446 37.1926L29.3704 42.2158L29.0943 41.4012ZM28.6455 40.2133L34.6175 35.1901L34.9972 36.0725L28.9907 41.0957L28.6455 40.2133ZM27.7135 37.9053L33.8235 32.8821L34.0997 33.7646L28.0932 38.7538L27.7135 37.9053ZM27.2647 36.7513L33.2712 31.7621L33.6509 32.5766L27.6444 37.6338L27.2647 36.7513ZM40.624 22.4962V21.478H41.8321L40.624 22.4962ZM35.3769 27.8249H31.7868L31.8559 27.9946L25.8494 33.0179L25.5387 32.2033L30.7167 27.8249H30.268L25.4007 31.8639L25.09 31.0154L28.9217 27.8249H28.4039L24.9519 30.676L24.5722 29.8614L27.0576 27.8249H26.6088L24.5031 29.5559L24.1925 28.6735L25.2626 27.8249H24.7448L24.0544 28.368L23.8127 27.8249H20.2227V21.478H35.3769V27.8249ZM40.624 24.4309L44.145 21.478H45.5258L40.624 25.5509V24.4309ZM40.624 22.8696L42.2809 21.478H43.6962L40.624 23.9896V22.8696ZM25.9184 33.3233L31.9249 28.3001L32.3046 29.1147L26.2982 34.1379L25.9184 33.3233ZM26.9195 35.5634L32.8915 30.5741L33.2022 31.4566L27.1957 36.4459L26.9195 35.5634ZM26.4708 34.4434L32.4427 29.4541L32.7534 30.2687L26.7469 35.3258L26.4708 34.4434ZM45.4222 45.1007L39.4503 40.0775L39.6574 39.4666L45.6639 44.388L45.4222 45.1007ZM49.0468 35.8349L43.0403 30.8117L43.2475 30.2687L49.2539 35.2579L49.0468 35.8349ZM48.5981 37.0229L42.5916 31.9996L42.7987 31.3887L48.8742 36.378L48.5981 37.0229ZM44.0759 48.4609L38.0695 43.4716L38.3111 42.8946L44.3866 47.9178L44.0759 48.4609ZM48.1493 38.1429L42.1428 33.1197L42.3499 32.5088L48.3564 37.498L48.1493 38.1429ZM49.9443 33.493L43.9379 28.5038L44.145 27.9268L50.1515 32.95L49.9443 33.493ZM49.4956 34.681L43.4891 29.6917L43.6962 29.0807L49.7027 34.07L49.4956 34.681ZM47.7005 39.263L41.6941 34.3076L41.9012 33.6288L47.9077 38.652L47.7005 39.263ZM44.9735 46.2208L39.0706 41.1976L39.2086 40.5866L45.2151 45.5759L44.9735 46.2208ZM47.2518 40.4509L41.2453 35.4616L41.5215 34.8167L47.5279 39.8399L47.2518 40.4509ZM44.5247 47.3408L38.5182 42.3176L38.8289 41.7067L44.8354 46.7299L44.5247 47.3408ZM45.871 43.9128L39.899 38.8896L40.1752 38.2787L46.1817 43.268L45.871 43.9128ZM46.803 41.5709L40.7966 36.5816L41.0037 35.9368L47.0101 41.0279L46.803 41.5709ZM46.4233 42.7588L40.4168 37.7696L40.5549 37.1247L46.5614 42.1479L46.4233 42.7588Z" fill="black"/>
</g>
</g>
</g>
<defs>
<clipPath id="clip0_633_60">
<rect width="50" height="50" fill="white" transform="translate(13 12)"/>
</clipPath>
</defs>
</svg>
