<svg width="50" height="50" viewBox="0 0 50 50" fill="none" xmlns="http://www.w3.org/2000/svg">
<g clip-path="url(#clip0_630_22)">
<mask id="mask0_630_22" style="mask-type:luminance" maskUnits="userSpaceOnUse" x="0" y="0" width="50" height="50">
<path d="M50 0H0V50H50V0Z" fill="white"/>
</mask>
<g mask="url(#mask0_630_22)">
<mask id="mask1_630_22" style="mask-type:luminance" maskUnits="userSpaceOnUse" x="0" y="0" width="50" height="50">
<path d="M50 0H0V50H50V0Z" fill="white"/>
</mask>
<g mask="url(#mask1_630_22)">
<path opacity="0.6" d="M5.55566 0H50.0001V42.2222H5.55566V0Z" fill="#FFE599"/>
<path opacity="0.8" d="M2.77734 6.6665H46.1107V46.6665H2.77734V6.6665Z" fill="#FFE599"/>
<path d="M0.323834 43.3569H0V3.10693H43.0376V3.42836H0.323834V43.3569ZM50 49.9998H6.96244V49.6784H49.6438V9.71408H50V49.9998Z" fill="#F9BF4B"/>
</g>
<mask id="mask2_630_22" style="mask-type:luminance" maskUnits="userSpaceOnUse" x="7" y="9" width="36" height="33">
<path d="M42.7782 9.44434H7.22266V41.111H42.7782V9.44434Z" fill="white"/>
</mask>
<g mask="url(#mask2_630_22)">
<path d="M42.7782 14.637L41.3629 15.8249H40.0857L42.7782 13.5509V14.637ZM16.9918 31.6413L22.9983 26.652L23.3435 27.5005L17.3715 32.5238L16.9918 31.6413ZM17.4406 32.7613L23.447 27.7721L23.7232 28.6545L17.7167 33.6438L17.4406 32.7613ZM40.7761 11.7521L40.5344 12.2951L40.3273 12.1933L39.8785 12.4987L40.1547 12.6685L42.7782 10.4962V11.6163L39.8785 14.06L39.6369 14.637L42.7782 11.9896V13.1097L39.5679 15.8249H38.3597L38.9465 16.3001L38.7394 16.945L37.3931 15.8249H36.4956L38.4977 17.4541L38.2906 18.1329L35.529 15.8249H34.7005L38.049 18.642L37.8419 19.1851L33.6995 15.8249H32.871L37.6002 19.7621L37.3931 20.373L31.9044 15.8249H30.8688L31.3866 15.3837L31.5937 14.8067L30.4201 15.8249H29.0738L32.2841 13.1097L32.5258 12.5666L28.625 15.8249H27.624V15.4855L33.1817 10.8017L33.4233 10.2926L27.624 15.0443V13.9243L32.9745 9.47803H34.4589L34.597 9.61379L34.8386 9.47803H36.2539L36.4956 9.61379L36.6337 9.47803H38.049L38.2906 9.61379L38.4287 9.47803H39.9476L40.1547 9.61379L40.3273 9.47803H41.6736L41.4319 10.055L41.2248 9.85138L40.7761 10.1908L41.0522 10.3605L42.1223 9.47803H42.7782V10.055L40.7761 11.7521ZM31.5937 14.7388L31.8354 15.0104L32.2841 14.637L32.077 14.4334L31.5937 14.7388ZM32.5948 15.4855L32.8019 15.7571L33.1817 15.3837L32.9745 15.1801L32.5948 15.4855ZM32.5948 14.06L32.8019 14.2637L33.1817 13.8564L32.9745 13.6867L32.5948 14.06ZM32.5948 12.4987L32.8019 12.6685L33.1817 12.2951L32.9745 12.1933L32.5948 12.4987ZM33.4923 14.7388L33.6995 15.0104L34.1482 14.637L33.9411 14.4334L33.4923 14.7388ZM33.4923 13.2454L33.6995 13.4491L34.1482 13.1097L33.9411 12.94L33.4923 13.2454ZM33.4923 11.7521L33.6995 11.9218L34.1482 11.5484L33.9411 11.3787L33.4923 11.7521ZM33.4923 10.1908L33.6995 10.3605L34.1482 10.055L33.9411 9.85138L33.4923 10.1908ZM34.3899 15.4855L34.597 15.7571L35.0457 15.3837L34.8386 15.1801L34.3899 15.4855ZM34.3899 14.06L34.597 14.2637L35.0457 13.8564L34.8386 13.6867L34.3899 14.06ZM34.3899 12.4987L34.597 12.6685L35.0457 12.2951L34.8386 12.1933L34.3899 12.4987ZM34.3899 11.0054L34.597 11.1751L35.0457 10.8017L34.8386 10.632L34.3899 11.0054ZM35.2874 14.7388L35.529 15.0104L35.9778 14.637L35.7361 14.4334L35.2874 14.7388ZM35.2874 13.2454L35.529 13.4491L35.9778 13.1097L35.7361 12.94L35.2874 13.2454ZM35.2874 11.7521L35.529 11.9218L35.9778 11.5484L35.7361 11.3787L35.2874 11.7521ZM35.2874 10.1908L35.529 10.3605L35.9778 10.055L35.7361 9.85138L35.2874 10.1908ZM36.2539 15.4855L36.4956 15.7571L36.8753 15.3837L36.6337 15.1801L36.2539 15.4855ZM36.2539 14.06L36.4956 14.2637L36.8753 13.8564L36.6337 13.6867L36.2539 14.06ZM36.2539 12.4987L36.4956 12.6685L36.8753 12.2951L36.6337 12.1933L36.2539 12.4987ZM36.2539 11.0054L36.4956 11.1751L36.8753 10.8017L36.6337 10.632L36.2539 11.0054ZM37.1515 14.7388L37.3931 15.0104L37.8419 14.637L37.5312 14.4334L37.1515 14.7388ZM37.1515 13.2454L37.3931 13.4491L37.8419 13.1097L37.5312 12.94L37.1515 13.2454ZM37.1515 11.7521L37.3931 11.9218L37.8419 11.5484L37.5312 11.3787L37.1515 11.7521ZM37.1515 10.1908L37.3931 10.3605L37.8419 10.055L37.5312 9.85138L37.1515 10.1908ZM37.9799 15.4855L38.2906 15.7571L38.7394 15.3837L38.4287 15.1801L37.9799 15.4855ZM37.9799 14.06L38.2906 14.2637L38.7394 13.8564L38.4287 13.6867L37.9799 14.06ZM37.9799 12.4987L38.2906 12.6685L38.7394 12.2951L38.4287 12.1933L37.9799 12.4987ZM37.9799 11.0054L38.2906 11.1751L38.7394 10.8017L38.4287 10.632L37.9799 11.0054ZM38.9465 14.7388L39.1881 15.0104L39.6369 14.637L39.3262 14.4334L38.9465 14.7388ZM38.9465 13.2454L39.1881 13.4491L39.6369 13.1097L39.3262 12.94L38.9465 13.2454ZM38.9465 11.7521L39.1881 11.9218L39.6369 11.5484L39.3262 11.3787L38.9465 11.7521ZM38.9465 10.1908L39.1881 10.3605L39.6369 10.055L39.3262 9.85138L38.9465 10.1908ZM40.3273 10.632L39.8785 11.0054L40.1547 11.1751L40.5344 10.8017L40.3273 10.632ZM42.7782 15.0443V15.8249H41.8117L42.7782 15.0443ZM17.9584 33.9493L23.9648 28.96L24.241 29.8424L18.269 34.8317L17.9584 33.9493ZM18.3381 35.1372L24.3446 30.08L24.7243 30.9625L18.7178 35.9518L18.3381 35.1372ZM15.2658 27.0932L21.1687 22.07L21.5484 22.9525L15.542 27.9418L15.2658 27.0932ZM16.6121 30.4534L22.515 25.498L22.8947 26.3126L16.8882 31.3358L16.6121 30.4534ZM24.7933 31.268L25.0695 32.0825V32.1504L30.8688 37.0379L30.6962 37.6488L25.4492 33.3383L25.0695 33.7117L25.3111 33.9153L25.6908 33.5759L26.0706 34.3905L25.967 34.4584L30.4891 38.2258L30.2475 38.7688L26.4503 35.6463L25.967 35.9518L26.2086 36.1554L26.5884 35.8499L26.9681 36.7324L26.899 36.7663L30.0403 39.3458L29.7297 39.9568L27.3478 37.9203L26.899 38.2258L27.1062 38.4634L27.4859 38.1579L27.7966 39.0404L29.5225 40.4659L29.2809 41.0429H29.2119L28.2453 40.1604L27.7966 40.5338L28.0037 40.7713L28.3834 40.4659L28.625 41.0429H27.4168L27.3478 40.975L27.1752 41.0429H25.6218L25.4492 40.975L25.3802 41.0429H23.7232L23.6542 40.975L23.5161 41.0429H21.9282L21.7901 40.975V41.0429H20.6509L20.5819 40.8392L22.0662 39.6513L21.9972 39.5495L22.0662 39.1422L20.4438 40.6016L20.1331 39.7192L22.9983 37.3433L22.8947 37.2755L22.9983 36.97L20.0641 39.4137L19.6844 38.5313L23.9648 35.0354L23.7232 34.9675L23.8958 34.662L19.6153 38.2258L19.2356 37.4112L24.8624 32.7613L24.7243 32.6595V32.388L19.0975 37.1058L18.7868 36.2912L24.7933 31.268ZM22.3079 40.5338L22.515 40.7713L22.9983 40.398L22.7566 40.1604L22.3079 40.5338ZM22.3079 39.0404L22.515 39.2101L22.9983 38.8367L22.7566 38.667L22.3079 39.0404ZM23.2054 39.7871L23.5161 39.9568L23.9648 39.6513L23.6542 39.4137L23.2054 39.7871ZM23.2054 38.2258L23.5161 38.4634L23.9648 38.09L23.6542 37.9203L23.2054 38.2258ZM23.2054 36.7663L23.5161 36.97L23.9648 36.5966L23.6542 36.393L23.2054 36.7663ZM24.1029 40.5338L24.4136 40.7713L24.8624 40.398L24.5517 40.1604L24.1029 40.5338ZM24.1029 39.0404L24.4136 39.2101L24.8624 38.8367L24.5517 38.667L24.1029 39.0404ZM24.1029 37.547L24.4136 37.7167L24.8624 37.3433L24.5517 37.1397L24.1029 37.547ZM24.1029 35.9518L24.4136 36.1554L24.8624 35.8499L24.5517 35.6463L24.1029 35.9518ZM24.1029 34.4584L24.4136 34.662L24.8624 34.2887L24.5517 34.085L24.1029 34.4584ZM25.0695 39.7871L25.3111 39.9568L25.6908 39.6513L25.4492 39.4137L25.0695 39.7871ZM25.0695 38.2258L25.3111 38.4634L25.6908 38.09L25.4492 37.9203L25.0695 38.2258ZM25.0695 36.7663L25.3111 36.97L25.6908 36.5966L25.4492 36.393L25.0695 36.7663ZM27.5549 39.6513L27.3478 39.4137L26.899 39.7871L27.1062 39.9568L27.5549 39.6513ZM26.6574 37.3433L26.4503 37.1397L25.967 37.547L26.2086 37.7167L26.6574 37.3433ZM26.6574 38.8367L26.4503 38.667L25.967 39.0404L26.2086 39.2101L26.6574 38.8367ZM26.6574 40.398L26.4503 40.1604L25.967 40.5338L26.2086 40.7713L26.6574 40.398ZM25.6908 35.0354L25.4492 34.8317L25.0695 35.2051L25.3111 35.4087L25.6908 35.0354ZM16.0943 29.4012L22.0662 24.378L22.446 25.1926L16.3704 30.2158L16.0943 29.4012ZM15.6455 28.2133L21.6175 23.1901L21.9972 24.0725L15.9907 29.0957L15.6455 28.2133ZM14.7135 25.9053L20.8235 20.8821L21.0997 21.7646L15.0932 26.7538L14.7135 25.9053ZM14.2647 24.7513L20.2712 19.7621L20.6509 20.5766L14.6444 25.6338L14.2647 24.7513ZM27.624 10.4962V9.47803H28.8321L27.624 10.4962ZM22.3769 15.8249H18.7868L18.8559 15.9946L12.8494 21.0179L12.5387 20.2033L17.7167 15.8249H17.268L12.4007 19.8639L12.09 19.0154L15.9217 15.8249H15.4039L11.9519 18.676L11.5722 17.8614L14.0576 15.8249H13.6088L11.5031 17.5559L11.1925 16.6735L12.2626 15.8249H11.7448L11.0544 16.368L10.8127 15.8249H7.22266V9.47803H22.3769V15.8249ZM27.624 12.4309L31.145 9.47803H32.5258L27.624 13.5509V12.4309ZM27.624 10.8696L29.2809 9.47803H30.6962L27.624 11.9896V10.8696ZM12.9184 21.3233L18.9249 16.3001L19.3046 17.1147L13.2982 22.1379L12.9184 21.3233ZM13.9195 23.5634L19.8915 18.5741L20.2022 19.4566L14.1957 24.4459L13.9195 23.5634ZM13.4708 22.4434L19.4427 17.4541L19.7534 18.2687L13.7469 23.3258L13.4708 22.4434ZM32.4222 33.1007L26.4503 28.0775L26.6574 27.4666L32.6639 32.388L32.4222 33.1007ZM36.0468 23.8349L30.0403 18.8117L30.2475 18.2687L36.2539 23.2579L36.0468 23.8349ZM35.5981 25.0229L29.5916 19.9996L29.7987 19.3887L35.8742 24.378L35.5981 25.0229ZM31.0759 36.4609L25.0695 31.4716L25.3111 30.8946L31.3866 35.9178L31.0759 36.4609ZM35.1493 26.1429L29.1428 21.1197L29.3499 20.5088L35.3564 25.498L35.1493 26.1429ZM36.9443 21.493L30.9379 16.5038L31.145 15.9268L37.1515 20.95L36.9443 21.493ZM36.4956 22.681L30.4891 17.6917L30.6962 17.0807L36.7027 22.07L36.4956 22.681ZM34.7005 27.263L28.6941 22.3076L28.9012 21.6288L34.9077 26.652L34.7005 27.263ZM31.9735 34.2208L26.0706 29.1976L26.2086 28.5866L32.2151 33.5759L31.9735 34.2208ZM34.2518 28.4509L28.2453 23.4616L28.5215 22.8167L34.5279 27.8399L34.2518 28.4509ZM31.5247 35.3408L25.5182 30.3176L25.8289 29.7067L31.8354 34.7299L31.5247 35.3408ZM32.871 31.9128L26.899 26.8896L27.1752 26.2787L33.1817 31.268L32.871 31.9128ZM33.803 29.5709L27.7966 24.5816L28.0037 23.9368L34.0101 29.0279L33.803 29.5709ZM33.4233 30.7588L27.4168 25.7696L27.5549 25.1247L33.5614 30.1479L33.4233 30.7588Z" fill="black"/>
</g>
</g>
</g>
<defs>
<clipPath id="clip0_630_22">
<rect width="50" height="50" fill="white"/>
</clipPath>
</defs>
</svg>
