<svg data-v-6805eed4="" version="1.0" xmlns="http://www.w3.org/2000/svg" xmlns:xlink="http://www.w3.org/1999/xlink"
    width="100%" height="100%" viewBox="0 0 340.000000 250.000000" preserveAspectRatio="xMidYMid meet"
    color-interpolation-filters="sRGB" style="margin: auto;">
    <rect data-v-6805eed4="" x="0" y="0" width="100%" height="100%" fill="#0c343d" fill-opacity="1" class="background">
    </rect>
    <!---->
    <g data-v-6805eed4="" fill="#ffe599" class="icon-text-wrapper icon-svg-group iconsvg"
        transform="translate(82.46563713252544,69.39982223510742)">
        <g fill="" class="iconsvg-imagesvg icon_container" transform="translate(55.62218475341797,0)">
            <rect fill="#ffe599" fill-opacity="0" stroke-width="2" x="0" y="0" width="63.82435537401073"
                height="63.82435537401073" class="image-rect"></rect> <svg viewBox="0 0 60 64.09160827209024" x="0"
                y="0" width="63.82435537401073" height="63.82435537401073" class="image-svg-svg bn"
                style="overflow: visible;">
                <g hollow-target="iconBnFill" mask="url(#8a3e00a0-7ba1-4a66-98b6-755581de57f5)">
                    <g><svg xmlns="http://www.w3.org/2000/svg" viewBox="0 0 132.86 141.92" style="overflow: visible;"
                            width="60" height="64.09160827209024" x="0" y="0" filtersec="colorsf1568696507">
                            <g transform="scale(1, 1) skewX(0)">
                                <path fill="#ffe599" opacity=".6" d="M19 0h113.86v113.86H19z"></path>
                                <path fill="#ffe599" opacity=".8" d="M9.73 18.53h113.86v113.86H9.73z"></path>
                                <path fill="#f9bf4b"
                                    d="M.93 123.13H0V8.8h114.32v.93H.93v113.4zM132.84 141.92H18.52V141h113.39V27.6h.93v114.32z">
                                </path>
                            </g>
                        </svg></g>
                    <g filter="url(#colors5019301535)"><svg xmlns="http://www.w3.org/2000/svg"
                            xmlns:xlink="http://www.w3.org/1999/xlink"
                            viewBox="0 0 47.380001068115234 50.400001525878906" width="40" height="42.72774" x="10"
                            y="10.681934136045122" class="image-svg-letter">
                            <path transform="translate(0 50.400000000000006)"
                                d="M47.38-42.19L45.50-40.32L43.78-40.32L47.38-43.92L47.38-42.19ZM13.03-14.98L21.02-22.97L21.46-21.60L13.46-13.61L13.03-14.98ZM13.61-13.18L21.60-21.17L22.03-19.80L14.04-11.81L13.61-13.18ZM44.71-46.80L44.35-45.86L44.06-46.15L43.49-45.58L43.85-45.29L47.38-48.82L47.38-47.02L43.49-43.13L43.20-42.19L47.38-46.37L47.38-44.57L43.13-40.32L41.47-40.32L42.34-39.46L41.98-38.52L40.18-40.32L39.02-40.32L41.69-37.66L41.40-36.65L37.73-40.32L36.58-40.32L41.11-35.78L40.82-34.85L35.28-40.32L34.20-40.32L40.54-33.98L40.18-32.98L32.90-40.32L31.54-40.32L32.18-40.97L32.18-40.97L32.47-41.90L30.89-40.32L29.09-40.32L33.41-44.64L33.41-44.64L33.70-45.50L28.51-40.32L27.22-40.32L27.22-40.82L34.63-48.31L34.56-48.31L34.85-49.10L27.22-41.47L27.22-43.27L34.34-50.40L36.29-50.40L36.50-50.18L36.79-50.40L38.74-50.40L38.95-50.18L39.17-50.40L41.11-50.40L41.40-50.18L41.62-50.40L43.56-50.40L43.85-50.18L44.06-50.40L45.86-50.40L45.86-50.40L45.58-49.54L45.29-49.82L44.71-49.25L45.07-48.96L46.51-50.40L47.38-50.40L47.38-49.46L44.71-46.80ZM32.54-41.98L32.83-41.62L33.41-42.19L33.12-42.48L32.54-41.98ZM33.77-40.75L34.06-40.39L34.63-40.97L34.34-41.33L33.77-40.75ZM33.77-43.13L34.06-42.84L34.63-43.42L34.34-43.70L33.77-43.13ZM33.77-45.58L34.06-45.29L34.63-45.86L34.34-46.15L33.77-45.58ZM34.99-41.98L35.28-41.62L35.86-42.19L35.57-42.48L34.99-41.98ZM34.99-44.35L35.28-44.06L35.86-44.64L35.57-44.93L34.99-44.35ZM34.99-46.80L35.28-46.51L35.86-47.09L35.57-47.38L34.99-46.80ZM34.99-49.25L35.28-48.96L35.86-49.54L35.57-49.82L34.99-49.25ZM36.22-40.75L36.50-40.39L37.08-40.97L36.79-41.33L36.22-40.75ZM36.22-43.13L36.50-42.84L37.08-43.42L36.79-43.70L36.22-43.13ZM36.22-45.58L36.50-45.29L37.08-45.86L36.79-46.15L36.22-45.58ZM36.22-48.02L36.50-47.74L37.08-48.31L36.79-48.60L36.22-48.02ZM37.44-41.98L37.73-41.62L38.30-42.19L38.02-42.48L37.44-41.98ZM37.44-44.35L37.73-44.06L38.30-44.64L38.02-44.93L37.44-44.35ZM37.44-46.80L37.73-46.51L38.30-47.09L38.02-47.38L37.44-46.80ZM37.44-49.25L37.73-48.96L38.30-49.54L38.02-49.82L37.44-49.25ZM38.66-40.75L38.95-40.39L39.53-40.97L39.24-41.33L38.66-40.75ZM38.66-43.13L38.95-42.84L39.53-43.42L39.24-43.70L38.66-43.13ZM38.66-45.58L38.95-45.29L39.53-45.86L39.24-46.15L38.66-45.58ZM38.66-48.02L38.95-47.74L39.53-48.31L39.24-48.60L38.66-48.02ZM39.89-41.98L40.18-41.62L40.75-42.19L40.39-42.48L39.89-41.98ZM39.89-44.35L40.18-44.06L40.75-44.64L40.39-44.93L39.89-44.35ZM39.89-46.80L40.18-46.51L40.75-47.09L40.39-47.38L39.89-46.80ZM39.89-49.25L40.18-48.96L40.75-49.54L40.39-49.82L39.89-49.25ZM41.04-40.75L41.40-40.39L41.98-40.97L41.62-41.33L41.04-40.75ZM41.04-43.13L41.40-42.84L41.98-43.42L41.62-43.70L41.04-43.13ZM41.04-45.58L41.40-45.29L41.98-45.86L41.62-46.15L41.04-45.58ZM41.04-48.02L41.40-47.74L41.98-48.31L41.62-48.60L41.04-48.02ZM42.26-41.98L42.62-41.62L43.20-42.19L42.84-42.48L42.26-41.98ZM42.26-44.35L42.62-44.06L43.20-44.64L42.84-44.93L42.26-44.35ZM42.26-46.80L42.62-46.51L43.20-47.09L42.84-47.38L42.26-46.80ZM42.26-49.25L42.62-48.96L43.20-49.54L42.84-49.82L42.26-49.25ZM44.06-48.60L43.49-48.02L43.85-47.74L44.42-48.31L44.06-48.60ZM47.38-41.54L47.38-40.32L46.15-40.32L47.38-41.54ZM14.26-11.30L22.25-19.30L22.68-17.93L14.69-9.94L14.26-11.30ZM14.83-9.43L22.82-17.50L23.26-16.13L15.26-8.14L14.83-9.43ZM10.66-22.32L18.65-30.31L19.08-28.94L11.09-20.95L10.66-22.32ZM12.46-16.85L20.45-24.84L20.88-23.47L12.89-15.48L12.46-16.85ZM23.40-15.62L23.83-14.26L23.76-14.18L31.54-6.41L31.25-5.40L24.34-12.31L23.76-11.74L24.12-11.45L24.62-11.95L25.06-10.58L24.98-10.51L30.96-4.54L30.67-3.60L25.56-8.64L24.98-8.06L25.27-7.78L25.78-8.28L26.28-6.91L26.21-6.84L30.38-2.74L30.02-1.73L26.78-4.97L26.21-4.46L26.50-4.10L27.00-4.61L27.43-3.24L27.43-3.24L29.74-0.86L29.45 0L29.30 0L28.01-1.37L27.43-0.79L27.72-0.43L28.22-0.94L28.51 0L26.93 0L26.78-0.14L26.64 0L24.48 0L24.34-0.14L24.19 0L22.03 0L21.89-0.14L21.74 0L19.58 0L19.44-0.14L19.37 0L17.93 0L17.78-0.29L19.80-2.23L19.66-2.38L19.80-2.95L17.64-0.72L17.21-2.09L21.02-5.90L20.88-6.05L21.02-6.55L17.06-2.59L16.63-3.96L22.25-9.58L22.03-9.72L22.18-10.15L16.49-4.46L15.98-5.76L23.47-13.18L23.26-13.39L23.33-13.75L15.84-6.26L15.41-7.63L23.40-15.62ZM20.09-0.79L20.45-0.43L21.02-1.01L20.66-1.37L20.09-0.79ZM20.09-3.24L20.45-2.88L21.02-3.46L20.66-3.82L20.09-3.24ZM21.31-2.02L21.67-1.66L22.25-2.23L21.89-2.59L21.31-2.02ZM21.31-4.46L21.67-4.10L22.25-4.68L21.89-4.97L21.31-4.46ZM21.31-6.84L21.67-6.55L22.25-7.13L21.89-7.42L21.31-6.84ZM22.54-0.79L22.90-0.43L23.47-1.01L23.11-1.37L22.54-0.79ZM22.54-3.24L22.90-2.88L23.47-3.46L23.11-3.82L22.54-3.24ZM22.54-5.62L22.90-5.33L23.47-5.90L23.11-6.19L22.54-5.62ZM22.54-8.06L22.90-7.78L23.47-8.35L23.11-8.64L22.54-8.06ZM22.54-10.51L22.90-10.22L23.47-10.80L23.11-11.09L22.54-10.51ZM23.76-2.02L24.12-1.66L24.62-2.23L24.34-2.59L23.76-2.02ZM23.76-4.46L24.12-4.10L24.62-4.68L24.34-4.97L23.76-4.46ZM23.76-6.84L24.12-6.55L24.62-7.13L24.34-7.42L23.76-6.84ZM27.07-2.23L26.78-2.59L26.21-2.02L26.50-1.66L27.07-2.23ZM25.85-5.90L25.56-6.19L24.98-5.62L25.27-5.33L25.85-5.90ZM25.85-3.46L25.56-3.82L24.98-3.24L25.27-2.88L25.85-3.46ZM25.85-1.01L25.56-1.37L24.98-0.79L25.27-0.43L25.85-1.01ZM24.62-9.58L24.34-9.86L23.76-9.29L24.12-9.00L24.62-9.58ZM11.81-18.65L19.80-26.64L20.30-25.27L12.24-17.28L11.81-18.65ZM11.23-20.52L19.22-28.51L19.66-27.14L11.66-19.15L11.23-20.52ZM10.01-24.19L18.07-32.18L18.50-30.82L10.51-22.82L10.01-24.19ZM9.43-25.99L17.42-33.98L17.86-32.69L9.86-24.62L9.43-25.99ZM27.22-48.82L27.22-50.40L28.80-50.40L27.22-48.82ZM20.16-40.32L15.41-40.32L15.48-40.03L7.49-32.04L7.06-33.34L14.04-40.32L13.39-40.32L6.91-33.84L6.48-35.21L11.59-40.32L10.94-40.32L6.26-35.71L5.83-37.01L9.14-40.32L8.50-40.32L5.69-37.51L5.26-38.88L6.70-40.32L6.05-40.32L5.11-39.38L4.82-40.32L0-40.32L0-50.40L20.16-50.40L20.16-40.32ZM27.22-45.72L31.90-50.40L33.70-50.40L27.22-43.92L27.22-45.72ZM27.22-48.17L29.45-50.40L31.25-50.40L27.22-46.37L27.22-48.17ZM7.63-31.54L15.62-39.53L16.06-38.16L8.06-30.17L7.63-31.54ZM8.86-27.86L16.85-35.86L17.28-34.49L9.29-26.50L8.86-27.86ZM8.28-29.66L16.27-37.66L16.70-36.36L8.71-28.30L8.28-29.66ZM33.62-12.74L25.63-20.74L25.92-21.74L33.91-13.75L33.62-12.74ZM38.38-27.50L30.38-35.50L30.74-36.43L38.74-28.44L38.38-27.50ZM37.80-25.63L29.81-33.62L30.10-34.63L38.16-26.64L37.80-25.63ZM31.82-7.27L23.83-15.26L24.12-16.20L32.18-8.21L31.82-7.27ZM37.22-23.83L29.23-31.82L29.52-32.76L37.51-24.77L37.22-23.83ZM39.60-31.18L31.61-39.17L31.90-40.10L39.89-32.11L39.60-31.18ZM39.02-29.30L31.03-37.30L31.32-38.30L39.31-30.31L39.02-29.30ZM36.65-21.96L28.58-29.95L28.94-30.96L36.94-22.97L36.65-21.96ZM33.05-10.94L25.06-18.94L25.34-19.87L33.34-11.88L33.05-10.94ZM36.00-20.09L28.01-28.15L28.37-29.09L36.36-21.10L36.00-20.09ZM32.40-9.07L24.41-17.06L24.77-18.07L32.76-10.08L32.40-9.07ZM34.20-14.62L26.21-22.61L26.57-23.62L34.56-15.55L34.20-14.62ZM35.42-18.29L27.43-26.28L27.72-27.29L35.71-19.22L35.42-18.29ZM34.85-16.42L26.86-24.41L27.14-25.42L35.14-17.42L34.85-16.42Z">
                            </path>
                        </svg></g>
                </g>
                <mask id="8a3e00a0-7ba1-4a66-98b6-755581de57f5">
                    <g fill="white"><svg xmlns="http://www.w3.org/2000/svg" viewBox="0 0 132.86 141.92"
                            style="overflow: visible;" width="60" height="64.09160827209024" x="0" y="0"
                            filtersec="colorsf1568696507">
                            <g transform="scale(1, 1) skewX(0)">
                                <path d="M19 0h113.86v113.86H19z"></path>
                                <path d="M9.73 18.53h113.86v113.86H9.73z"></path>
                                <path
                                    d="M.93 123.13H0V8.8h114.32v.93H.93v113.4zM132.84 141.92H18.52V141h113.39V27.6h.93v114.32z">
                                </path>
                            </g>
                        </svg></g>
                    <g fill="black"><svg xmlns="http://www.w3.org/2000/svg" xmlns:xlink="http://www.w3.org/1999/xlink"
                            viewBox="0 0 47.380001068115234 50.400001525878906" width="40" height="42.72774" x="10"
                            y="10.681934136045122" class="image-svg-letter">
                            <path transform="translate(0 50.400000000000006)"
                                d="M47.38-42.19L45.50-40.32L43.78-40.32L47.38-43.92L47.38-42.19ZM13.03-14.98L21.02-22.97L21.46-21.60L13.46-13.61L13.03-14.98ZM13.61-13.18L21.60-21.17L22.03-19.80L14.04-11.81L13.61-13.18ZM44.71-46.80L44.35-45.86L44.06-46.15L43.49-45.58L43.85-45.29L47.38-48.82L47.38-47.02L43.49-43.13L43.20-42.19L47.38-46.37L47.38-44.57L43.13-40.32L41.47-40.32L42.34-39.46L41.98-38.52L40.18-40.32L39.02-40.32L41.69-37.66L41.40-36.65L37.73-40.32L36.58-40.32L41.11-35.78L40.82-34.85L35.28-40.32L34.20-40.32L40.54-33.98L40.18-32.98L32.90-40.32L31.54-40.32L32.18-40.97L32.18-40.97L32.47-41.90L30.89-40.32L29.09-40.32L33.41-44.64L33.41-44.64L33.70-45.50L28.51-40.32L27.22-40.32L27.22-40.82L34.63-48.31L34.56-48.31L34.85-49.10L27.22-41.47L27.22-43.27L34.34-50.40L36.29-50.40L36.50-50.18L36.79-50.40L38.74-50.40L38.95-50.18L39.17-50.40L41.11-50.40L41.40-50.18L41.62-50.40L43.56-50.40L43.85-50.18L44.06-50.40L45.86-50.40L45.86-50.40L45.58-49.54L45.29-49.82L44.71-49.25L45.07-48.96L46.51-50.40L47.38-50.40L47.38-49.46L44.71-46.80ZM32.54-41.98L32.83-41.62L33.41-42.19L33.12-42.48L32.54-41.98ZM33.77-40.75L34.06-40.39L34.63-40.97L34.34-41.33L33.77-40.75ZM33.77-43.13L34.06-42.84L34.63-43.42L34.34-43.70L33.77-43.13ZM33.77-45.58L34.06-45.29L34.63-45.86L34.34-46.15L33.77-45.58ZM34.99-41.98L35.28-41.62L35.86-42.19L35.57-42.48L34.99-41.98ZM34.99-44.35L35.28-44.06L35.86-44.64L35.57-44.93L34.99-44.35ZM34.99-46.80L35.28-46.51L35.86-47.09L35.57-47.38L34.99-46.80ZM34.99-49.25L35.28-48.96L35.86-49.54L35.57-49.82L34.99-49.25ZM36.22-40.75L36.50-40.39L37.08-40.97L36.79-41.33L36.22-40.75ZM36.22-43.13L36.50-42.84L37.08-43.42L36.79-43.70L36.22-43.13ZM36.22-45.58L36.50-45.29L37.08-45.86L36.79-46.15L36.22-45.58ZM36.22-48.02L36.50-47.74L37.08-48.31L36.79-48.60L36.22-48.02ZM37.44-41.98L37.73-41.62L38.30-42.19L38.02-42.48L37.44-41.98ZM37.44-44.35L37.73-44.06L38.30-44.64L38.02-44.93L37.44-44.35ZM37.44-46.80L37.73-46.51L38.30-47.09L38.02-47.38L37.44-46.80ZM37.44-49.25L37.73-48.96L38.30-49.54L38.02-49.82L37.44-49.25ZM38.66-40.75L38.95-40.39L39.53-40.97L39.24-41.33L38.66-40.75ZM38.66-43.13L38.95-42.84L39.53-43.42L39.24-43.70L38.66-43.13ZM38.66-45.58L38.95-45.29L39.53-45.86L39.24-46.15L38.66-45.58ZM38.66-48.02L38.95-47.74L39.53-48.31L39.24-48.60L38.66-48.02ZM39.89-41.98L40.18-41.62L40.75-42.19L40.39-42.48L39.89-41.98ZM39.89-44.35L40.18-44.06L40.75-44.64L40.39-44.93L39.89-44.35ZM39.89-46.80L40.18-46.51L40.75-47.09L40.39-47.38L39.89-46.80ZM39.89-49.25L40.18-48.96L40.75-49.54L40.39-49.82L39.89-49.25ZM41.04-40.75L41.40-40.39L41.98-40.97L41.62-41.33L41.04-40.75ZM41.04-43.13L41.40-42.84L41.98-43.42L41.62-43.70L41.04-43.13ZM41.04-45.58L41.40-45.29L41.98-45.86L41.62-46.15L41.04-45.58ZM41.04-48.02L41.40-47.74L41.98-48.31L41.62-48.60L41.04-48.02ZM42.26-41.98L42.62-41.62L43.20-42.19L42.84-42.48L42.26-41.98ZM42.26-44.35L42.62-44.06L43.20-44.64L42.84-44.93L42.26-44.35ZM42.26-46.80L42.62-46.51L43.20-47.09L42.84-47.38L42.26-46.80ZM42.26-49.25L42.62-48.96L43.20-49.54L42.84-49.82L42.26-49.25ZM44.06-48.60L43.49-48.02L43.85-47.74L44.42-48.31L44.06-48.60ZM47.38-41.54L47.38-40.32L46.15-40.32L47.38-41.54ZM14.26-11.30L22.25-19.30L22.68-17.93L14.69-9.94L14.26-11.30ZM14.83-9.43L22.82-17.50L23.26-16.13L15.26-8.14L14.83-9.43ZM10.66-22.32L18.65-30.31L19.08-28.94L11.09-20.95L10.66-22.32ZM12.46-16.85L20.45-24.84L20.88-23.47L12.89-15.48L12.46-16.85ZM23.40-15.62L23.83-14.26L23.76-14.18L31.54-6.41L31.25-5.40L24.34-12.31L23.76-11.74L24.12-11.45L24.62-11.95L25.06-10.58L24.98-10.51L30.96-4.54L30.67-3.60L25.56-8.64L24.98-8.06L25.27-7.78L25.78-8.28L26.28-6.91L26.21-6.84L30.38-2.74L30.02-1.73L26.78-4.97L26.21-4.46L26.50-4.10L27.00-4.61L27.43-3.24L27.43-3.24L29.74-0.86L29.45 0L29.30 0L28.01-1.37L27.43-0.79L27.72-0.43L28.22-0.94L28.51 0L26.93 0L26.78-0.14L26.64 0L24.48 0L24.34-0.14L24.19 0L22.03 0L21.89-0.14L21.74 0L19.58 0L19.44-0.14L19.37 0L17.93 0L17.78-0.29L19.80-2.23L19.66-2.38L19.80-2.95L17.64-0.72L17.21-2.09L21.02-5.90L20.88-6.05L21.02-6.55L17.06-2.59L16.63-3.96L22.25-9.58L22.03-9.72L22.18-10.15L16.49-4.46L15.98-5.76L23.47-13.18L23.26-13.39L23.33-13.75L15.84-6.26L15.41-7.63L23.40-15.62ZM20.09-0.79L20.45-0.43L21.02-1.01L20.66-1.37L20.09-0.79ZM20.09-3.24L20.45-2.88L21.02-3.46L20.66-3.82L20.09-3.24ZM21.31-2.02L21.67-1.66L22.25-2.23L21.89-2.59L21.31-2.02ZM21.31-4.46L21.67-4.10L22.25-4.68L21.89-4.97L21.31-4.46ZM21.31-6.84L21.67-6.55L22.25-7.13L21.89-7.42L21.31-6.84ZM22.54-0.79L22.90-0.43L23.47-1.01L23.11-1.37L22.54-0.79ZM22.54-3.24L22.90-2.88L23.47-3.46L23.11-3.82L22.54-3.24ZM22.54-5.62L22.90-5.33L23.47-5.90L23.11-6.19L22.54-5.62ZM22.54-8.06L22.90-7.78L23.47-8.35L23.11-8.64L22.54-8.06ZM22.54-10.51L22.90-10.22L23.47-10.80L23.11-11.09L22.54-10.51ZM23.76-2.02L24.12-1.66L24.62-2.23L24.34-2.59L23.76-2.02ZM23.76-4.46L24.12-4.10L24.62-4.68L24.34-4.97L23.76-4.46ZM23.76-6.84L24.12-6.55L24.62-7.13L24.34-7.42L23.76-6.84ZM27.07-2.23L26.78-2.59L26.21-2.02L26.50-1.66L27.07-2.23ZM25.85-5.90L25.56-6.19L24.98-5.62L25.27-5.33L25.85-5.90ZM25.85-3.46L25.56-3.82L24.98-3.24L25.27-2.88L25.85-3.46ZM25.85-1.01L25.56-1.37L24.98-0.79L25.27-0.43L25.85-1.01ZM24.62-9.58L24.34-9.86L23.76-9.29L24.12-9.00L24.62-9.58ZM11.81-18.65L19.80-26.64L20.30-25.27L12.24-17.28L11.81-18.65ZM11.23-20.52L19.22-28.51L19.66-27.14L11.66-19.15L11.23-20.52ZM10.01-24.19L18.07-32.18L18.50-30.82L10.51-22.82L10.01-24.19ZM9.43-25.99L17.42-33.98L17.86-32.69L9.86-24.62L9.43-25.99ZM27.22-48.82L27.22-50.40L28.80-50.40L27.22-48.82ZM20.16-40.32L15.41-40.32L15.48-40.03L7.49-32.04L7.06-33.34L14.04-40.32L13.39-40.32L6.91-33.84L6.48-35.21L11.59-40.32L10.94-40.32L6.26-35.71L5.83-37.01L9.14-40.32L8.50-40.32L5.69-37.51L5.26-38.88L6.70-40.32L6.05-40.32L5.11-39.38L4.82-40.32L0-40.32L0-50.40L20.16-50.40L20.16-40.32ZM27.22-45.72L31.90-50.40L33.70-50.40L27.22-43.92L27.22-45.72ZM27.22-48.17L29.45-50.40L31.25-50.40L27.22-46.37L27.22-48.17ZM7.63-31.54L15.62-39.53L16.06-38.16L8.06-30.17L7.63-31.54ZM8.86-27.86L16.85-35.86L17.28-34.49L9.29-26.50L8.86-27.86ZM8.28-29.66L16.27-37.66L16.70-36.36L8.71-28.30L8.28-29.66ZM33.62-12.74L25.63-20.74L25.92-21.74L33.91-13.75L33.62-12.74ZM38.38-27.50L30.38-35.50L30.74-36.43L38.74-28.44L38.38-27.50ZM37.80-25.63L29.81-33.62L30.10-34.63L38.16-26.64L37.80-25.63ZM31.82-7.27L23.83-15.26L24.12-16.20L32.18-8.21L31.82-7.27ZM37.22-23.83L29.23-31.82L29.52-32.76L37.51-24.77L37.22-23.83ZM39.60-31.18L31.61-39.17L31.90-40.10L39.89-32.11L39.60-31.18ZM39.02-29.30L31.03-37.30L31.32-38.30L39.31-30.31L39.02-29.30ZM36.65-21.96L28.58-29.95L28.94-30.96L36.94-22.97L36.65-21.96ZM33.05-10.94L25.06-18.94L25.34-19.87L33.34-11.88L33.05-10.94ZM36.00-20.09L28.01-28.15L28.37-29.09L36.36-21.10L36.00-20.09ZM32.40-9.07L24.41-17.06L24.77-18.07L32.76-10.08L32.40-9.07ZM34.20-14.62L26.21-22.61L26.57-23.62L34.56-15.55L34.20-14.62ZM35.42-18.29L27.43-26.28L27.72-27.29L35.71-19.22L35.42-18.29ZM34.85-16.42L26.86-24.41L27.14-25.42L35.14-17.42L34.85-16.42Z">
                            </path>
                        </svg></g>
                </mask>
            </svg>
            <defs>
                <filter id="colors5019301535">
                    <feColorMatrix type="matrix"
                        values="0 0 0 0 0.99609375  0 0 0 0 0.89453125  0 0 0 0 0.59765625  0 0 0 1 0"
                        class="icon-fecolormatrix"></feColorMatrix>
                </filter>
                <filter id="colorsf1568696507">
                    <feColorMatrix type="matrix"
                        values="0 0 0 0 0.99609375  0 0 0 0 0.99609375  0 0 0 0 0.99609375  0 0 0 1 0"
                        class="icon-fecolormatrix"></feColorMatrix>
                </filter>
                <filter id="colorsb9683868535">
                    <feColorMatrix type="matrix" values="0 0 0 0 0  0 0 0 0 0  0 0 0 0 0  0 0 0 1 0"
                        class="icon-fecolormatrix"></feColorMatrix>
                </filter>
            </defs>
        </g>
        <g transform="translate(0,70.82435607910156)">
            <g data-gra="path-name" fill-rule="" class="tp-name iconsvg-namesvg" transform="translate(0,0)">
                <g transform="scale(1)">
                    <g>
                        <path
                            d="M15.17-29.16L15.17-29.16Q15.76-29.04 16.08-28.54 16.4-28.05 16.28-27.5L16.28-27.5 10.94-1.15Q10.83-0.67 10.43-0.36 10.04-0.04 9.56-0.04L9.56-0.04 9.48-0.04 9.36-0.04Q8.89-0.04 8.49-0.36 8.1-0.67 8.02-1.15L8.02-1.15 2.69-27.5Q2.57-28.05 2.88-28.54 3.2-29.04 3.75-29.16L3.75-29.16Q4.31-29.28 4.8-28.94 5.29-28.6 5.41-28.05L5.41-28.05 9.48-8.02 13.55-28.05Q13.67-28.6 14.14-28.94 14.62-29.28 15.17-29.16ZM27.46 0.67L27.46 0.67Q24.46 0.67 22.76-1.22L22.76-1.22Q21.45-2.65 21.1-4.98L21.1-4.98Q20.98-5.69 20.98-6.2 20.98-6.72 21.02-6.91L21.02-6.91 21.02-22.36Q21.02-24.18 21.59-25.52 22.16-26.87 23.07-27.75 23.98-28.64 25.13-29.06 26.27-29.47 27.46-29.47L27.46-29.47Q28.17-29.47 29.39-29.2 30.62-28.92 31.8-27.89L31.8-27.89Q32.2-27.54 32.59-27.06 32.99-26.59 33.31-25.9 33.62-25.21 33.84-24.34 34.06-23.47 34.06-22.36L34.06-22.36 34.06-6.64Q34.06-6.48 34.06-5.99 34.06-5.49 33.94-4.82L33.94-4.82Q33.54-2.65 32.24-1.22L32.24-1.22Q30.46 0.67 27.46 0.67ZM23.78-6.87L23.78-6.76Q23.78-6.72 23.78-6.32 23.78-5.93 23.86-5.37 23.94-4.82 24.16-4.19 24.38-3.56 24.85-3.08L24.85-3.08Q25.72-2.13 27.46-2.13L27.46-2.13Q29.24-2.13 30.18-3.12L30.18-3.12Q30.62-3.6 30.86-4.17 31.09-4.74 31.19-5.25 31.29-5.77 31.29-6.12 31.29-6.48 31.29-6.52L31.29-6.52 31.29-6.6 31.29-22.36Q31.29-23.86 30.82-24.71 30.34-25.56 29.71-26 29.08-26.43 28.43-26.55 27.77-26.67 27.46-26.67L27.46-26.67Q26-26.67 25.01-25.76L25.01-25.76Q23.78-24.61 23.78-22.36L23.78-22.36 23.78-6.87ZM46.03 0.28L46.03 0.28Q43.06 0.28 41.37-1.62L41.37-1.62Q40.69-2.29 40.3-3.24 39.9-4.19 39.71-5.33L39.71-5.33Q39.59-6.04 39.59-6.56 39.59-7.07 39.59-7.27L39.59-7.27 39.59-22.48Q39.59-24.3 40.16-25.64 40.73-26.98 41.64-27.85 42.55-28.72 43.7-29.14 44.84-29.55 45.99-29.55L45.99-29.55Q46.7-29.55 47.94-29.28 49.19-29 50.33-27.97L50.33-27.97Q51.12-27.3 51.85-26 52.59-24.69 52.59-22.48L52.59-22.48Q52.59-21.89 52.17-21.47 51.76-21.06 51.16-21.06L51.16-21.06Q50.57-21.06 50.16-21.47 49.74-21.89 49.74-22.48L49.74-22.48Q49.74-23.94 49.29-24.79 48.83-25.64 48.2-26.06 47.57-26.47 46.96-26.59 46.34-26.71 45.99-26.71L45.99-26.71Q45.32-26.71 44.7-26.47 44.09-26.23 43.66-25.8L43.66-25.8Q42.43-24.69 42.43-22.48L42.43-22.48 42.43-7.19 42.43-7.07Q42.43-7.03 42.43-6.66 42.43-6.28 42.51-5.75 42.59-5.22 42.81-4.6 43.02-3.99 43.46-3.52L43.46-3.52Q44.33-2.57 46.03-2.57L46.03-2.57Q47.81-2.57 48.67-3.56L48.67-3.56Q49.11-4.03 49.33-4.58 49.54-5.14 49.64-5.65 49.74-6.16 49.74-6.52 49.74-6.87 49.74-6.87L49.74-6.87Q49.7-7.47 50.1-7.9 50.49-8.34 51.08-8.38L51.08-8.38Q51.64-8.42 52.09-8.02 52.55-7.63 52.59-7.07L52.59-7.07Q52.59-6.99 52.59-6.48 52.59-5.97 52.43-5.18L52.43-5.18Q52.07-2.96 50.77-1.62L50.77-1.62Q48.99 0.28 46.03 0.28ZM64.99-28.33L70.52-1.03Q70.64-0.47 70.32-0.02 70.01 0.43 69.5 0.55L69.5 0.55 69.26 0.55Q68.82 0.55 68.45 0.26 68.07-0.04 67.99-0.47L67.99-0.47 66.93-5.61 60.53-5.61 59.5-0.47Q59.42-0.04 59.05 0.26 58.67 0.55 58.2 0.55L58.2 0.55 57.96 0.55Q57.45 0.43 57.15-0.02 56.85-0.47 56.97-1.03L56.97-1.03 62.46-28.33Q62.5-28.49 62.54-28.53L62.54-28.53 62.54-28.56 62.54-28.6Q62.62-28.8 62.74-28.88L62.74-28.88 62.74-28.96 62.78-28.96 62.78-29 62.82-29 62.82-29.04 62.86-29.04 62.86-29.08 62.9-29.08Q62.98-29.16 63.06-29.2 63.13-29.24 63.25-29.28L63.25-29.28 63.25-29.32 63.29-29.32Q63.37-29.35 63.47-29.35 63.57-29.35 63.65-29.39L63.65-29.39 63.69-29.39 63.77-29.39 63.81-29.39Q63.88-29.35 63.98-29.35 64.08-29.35 64.16-29.32L64.16-29.32 64.2-29.32 64.2-29.28Q64.36-29.24 64.44-29.2 64.52-29.16 64.6-29.08L64.6-29.08 64.64-29.08 64.64-29.04 64.68-29.04 64.68-29 64.71-29 64.71-28.96Q64.71-28.96 64.75-28.88L64.75-28.88Q64.79-28.8 64.85-28.74 64.91-28.68 64.95-28.6L64.95-28.6 64.95-28.56 64.95-28.53Q64.99-28.49 64.99-28.33L64.99-28.33ZM61.04-8.18L66.41-8.18 63.69-21.53 61.04-8.18ZM86.44-14.1L86.44-14.1Q88.1-11.65 88.1-8.3L88.1-8.3Q88.1-6.68 87.67-5.2 87.23-3.71 86.44-2.49L86.44-2.49Q85.54-1.22 84.37-0.51 83.2 0.2 81.94 0.2L81.94 0.2 76.33 0.2Q76.29 0.2 76.25 0.16L76.25 0.16Q76.21 0.2 76.13 0.2L76.13 0.2Q75.54 0.2 75.14-0.22 74.75-0.63 74.75-1.22L74.75-1.22 74.75-27.85Q74.75-28.41 75.14-28.82 75.54-29.24 76.13-29.24L76.13-29.24 76.17-29.24 81.23-29.24Q83.64-29.24 85.3-26.79L85.3-26.79Q86.84-24.57 86.84-21.61L86.84-21.61Q86.84-20.19 86.44-18.85 86.05-17.5 85.3-16.44L85.3-16.44Q85.06-16.08 84.78-15.8L84.78-15.8Q85.69-15.17 86.44-14.1ZM84.03-21.61L84.03-21.61Q84.03-22.64 83.78-23.51 83.52-24.38 83.13-25.03 82.73-25.68 82.22-26.06 81.7-26.43 81.23-26.43L81.23-26.43 77.52-26.43 77.52-16.79 81.23-16.79Q81.7-16.79 82.22-17.17 82.73-17.54 83.13-18.19 83.52-18.85 83.78-19.71 84.03-20.58 84.03-21.61ZM84.11-4.07L84.11-4.07Q84.71-4.94 85.02-6.04 85.34-7.15 85.34-8.3L85.34-8.3Q85.34-9.48 85.02-10.59 84.71-11.69 84.11-12.52L84.11-12.52Q83.13-13.99 81.94-13.99L81.94-13.99 77.52-13.99 77.52-2.61 81.94-2.61Q82.49-2.61 83.07-3 83.64-3.4 84.11-4.07ZM99.92 0.59L99.92 0.59Q96.95 0.59 95.25-1.3L95.25-1.3Q93.91-2.81 93.6-5.06L93.6-5.06Q93.48-5.77 93.48-6.28 93.48-6.8 93.48-6.99L93.48-6.99 93.48-27.81Q93.48-28.37 93.89-28.78 94.31-29.2 94.86-29.2L94.86-29.2Q95.45-29.2 95.87-28.78 96.28-28.37 96.28-27.81L96.28-27.81 96.28-6.95 96.28-6.83Q96.28-6.8 96.26-6.4 96.24-6.01 96.34-5.45 96.44-4.9 96.66-4.27 96.87-3.63 97.31-3.16L97.31-3.16Q98.18-2.21 99.92-2.21L99.92-2.21Q101.73-2.21 102.68-3.2L102.68-3.2Q103.12-3.67 103.35-4.25 103.59-4.82 103.67-5.37L103.67-5.37Q103.79-5.97 103.75-6.6L103.75-6.6 103.75-6.72 103.75-27.77Q103.75-28.37 104.16-28.78 104.58-29.2 105.17-29.2L105.17-29.2Q105.72-29.2 106.14-28.78 106.55-28.37 106.55-27.77L106.55-27.77 106.55-6.72Q106.55-6.56 106.53-6.06 106.51-5.57 106.4-4.9L106.4-4.9Q106.04-2.73 104.7-1.3L104.7-1.3Q102.96 0.59 99.92 0.59ZM123.74 0.2L123.74 0.2 113.23 0.2Q112.68 0.2 112.26-0.22 111.85-0.63 111.85-1.19L111.85-1.19 111.85-27.81Q111.85-28.37 112.26-28.78 112.68-29.2 113.23-29.2L113.23-29.2Q113.82-29.2 114.22-28.78 114.61-28.37 114.61-27.81L114.61-27.81 114.61-2.61 123.74-2.61Q124.29-2.61 124.71-2.19 125.12-1.78 125.12-1.19L125.12-1.19Q125.12-0.63 124.71-0.22 124.29 0.2 123.74 0.2ZM135.87-28.33L141.4-1.03Q141.52-0.47 141.2-0.02 140.89 0.43 140.37 0.55L140.37 0.55 140.14 0.55Q139.7 0.55 139.33 0.26 138.95-0.04 138.87-0.47L138.87-0.47 137.81-5.61 131.4-5.61 130.38-0.47Q130.3-0.04 129.92 0.26 129.55 0.55 129.07 0.55L129.07 0.55 128.84 0.55Q128.32 0.43 128.03-0.02 127.73-0.47 127.85-1.03L127.85-1.03 133.34-28.33Q133.38-28.49 133.42-28.53L133.42-28.53 133.42-28.56 133.42-28.6Q133.5-28.8 133.62-28.88L133.62-28.88 133.62-28.96 133.66-28.96 133.66-29 133.7-29 133.7-29.04 133.74-29.04 133.74-29.08 133.78-29.08Q133.85-29.16 133.93-29.2 134.01-29.24 134.13-29.28L134.13-29.28 134.13-29.32 134.17-29.32Q134.25-29.35 134.35-29.35 134.45-29.35 134.53-29.39L134.53-29.39 134.57-29.39 134.64-29.39 134.68-29.39Q134.76-29.35 134.86-29.35 134.96-29.35 135.04-29.32L135.04-29.32 135.08-29.32 135.08-29.28Q135.24-29.24 135.32-29.2 135.4-29.16 135.47-29.08L135.47-29.08 135.51-29.08 135.51-29.04 135.55-29.04 135.55-29 135.59-29 135.59-28.96Q135.59-28.96 135.63-28.88L135.63-28.88Q135.67-28.8 135.73-28.74 135.79-28.68 135.83-28.6L135.83-28.6 135.83-28.56 135.83-28.53Q135.87-28.49 135.87-28.33L135.87-28.33ZM131.92-8.18L137.29-8.18 134.57-21.53 131.92-8.18ZM155.74-12.21L160.32-1.74Q160.56-1.19 160.36-0.65 160.17-0.12 159.61 0.08L159.61 0.08Q159.46 0.16 159.32 0.18 159.18 0.2 159.06 0.2L159.06 0.2Q158.63 0.2 158.29 0 157.95-0.2 157.76-0.63L157.76-0.63 153.02-11.5 148.91-11.5 148.91-1.19Q148.91-0.59 148.49-0.2 148.08 0.2 147.48 0.2L147.48 0.2Q146.93 0.2 146.52-0.2 146.1-0.59 146.1-1.19L146.1-1.19 146.1-27.77Q146.1-28.37 146.52-28.78 146.93-29.2 147.48-29.2L147.48-29.2 153.37-29.2Q154.64-29.2 155.8-28.43 156.97-27.66 157.88-26.27L157.88-26.27Q158.67-25.01 159.1-23.47 159.53-21.93 159.53-20.35L159.53-20.35Q159.53-18.73 159.1-17.19 158.67-15.65 157.88-14.38L157.88-14.38Q156.89-12.88 155.74-12.21L155.74-12.21ZM148.91-26.39L148.91-14.26 153.37-14.26Q153.88-14.26 154.46-14.7 155.03-15.13 155.5-15.88L155.5-15.88Q156.1-16.79 156.43-17.96 156.77-19.12 156.77-20.35L156.77-20.35Q156.77-21.53 156.43-22.7 156.1-23.86 155.5-24.77L155.5-24.77Q155.03-25.56 154.46-25.98 153.88-26.39 153.37-26.39L153.37-26.39 148.91-26.39ZM176.84-29.04L176.84-29.04Q177.39-28.84 177.61-28.33 177.83-27.81 177.63-27.26L177.63-27.26 172.61-14.62 172.61-1.19Q172.61-0.59 172.22-0.2 171.82 0.2 171.23 0.2L171.23 0.2Q170.68 0.2 170.26-0.2 169.85-0.59 169.85-1.19L169.85-1.19 169.85-14.62 164.83-27.26Q164.63-27.81 164.85-28.33 165.07-28.84 165.62-29.04L165.62-29.04Q166.17-29.28 166.71-29.06 167.24-28.84 167.44-28.29L167.44-28.29 171.23-18.65 175.02-28.29Q175.22-28.84 175.75-29.06 176.29-29.28 176.84-29.04Z"
                            transform="translate(-2.6565115451812744, 29.549999237060547)"></path>
                    </g>
                    <!---->
                    <!---->
                    <!---->
                    <!---->
                    <!---->
                    <!---->
                    <!---->
                </g>
            </g>
            <g data-gra="path-slogan" fill-rule="" class="tp-slogan iconsvg-slogansvg" fill="#f9bf4b"
                transform="translate(5,32.21999931335449)">
                <rect x="0" height="1" y="3.580000400543213" width="63.294363021850586"></rect>
                <rect height="1" y="3.580000400543213" width="63.294363021850586" x="101.77436256408691"></rect>
                <g transform="translate(66.29436302185059,0)">
                    <g transform="scale(1)">
                        <path
                            d="M1.10-1.72L0.50-1.02C0.85-0.66 1.26-0.38 1.73-0.17C2.20 0.04 2.71 0.14 3.26 0.14C3.68 0.14 4.05 0.09 4.38-0.03C4.71-0.15 4.99-0.31 5.22-0.51C5.45-0.71 5.63-0.95 5.75-1.22C5.88-1.50 5.94-1.79 5.94-2.10C5.94-2.39 5.90-2.64 5.81-2.86C5.73-3.08 5.62-3.27 5.47-3.44C5.33-3.60 5.16-3.75 4.96-3.87C4.76-3.99 4.54-4.10 4.32-4.20L3.20-4.68C3.04-4.74 2.89-4.81 2.74-4.89C2.58-4.97 2.44-5.05 2.32-5.15C2.19-5.25 2.09-5.37 2.01-5.50C1.93-5.63 1.90-5.80 1.90-5.99C1.90-6.35 2.03-6.63 2.30-6.83C2.57-7.04 2.92-7.14 3.36-7.14C3.73-7.14 4.06-7.07 4.35-6.94C4.64-6.81 4.91-6.63 5.15-6.40L5.69-7.04C5.41-7.33 5.07-7.57 4.67-7.75C4.27-7.93 3.83-8.02 3.36-8.02C3-8.02 2.67-7.96 2.37-7.86C2.07-7.76 1.81-7.61 1.59-7.42C1.37-7.23 1.20-7.01 1.07-6.76C0.95-6.50 0.89-6.22 0.89-5.93C0.89-5.64 0.94-5.39 1.03-5.17C1.13-4.95 1.25-4.76 1.40-4.60C1.56-4.44 1.73-4.30 1.92-4.19C2.11-4.08 2.30-3.98 2.48-3.90L3.61-3.41C3.80-3.32 3.97-3.24 4.13-3.16C4.29-3.08 4.43-2.99 4.54-2.89C4.66-2.79 4.75-2.67 4.82-2.53C4.89-2.39 4.92-2.22 4.92-2.02C4.92-1.63 4.78-1.32 4.49-1.09C4.20-0.85 3.80-0.73 3.28-0.73C2.87-0.73 2.47-0.82 2.09-1.00C1.71-1.18 1.38-1.42 1.10-1.72ZM7.49-7.87L7.49 0L8.48 0L8.48-3.71L12.14-3.71L12.14 0L13.15 0L13.15-7.87L12.14-7.87L12.14-4.57L8.48-4.57L8.48-7.87ZM15.31-7.87L15.31 0L19.97 0L19.97-0.85L16.31-0.85L16.31-3.71L19.30-3.71L19.30-4.56L16.31-4.56L16.31-7.03L19.85-7.03L19.85-7.87ZM21.64-7.87L21.64 0L26.29 0L26.29-0.85L22.63-0.85L22.63-3.71L25.62-3.71L25.62-4.56L22.63-4.56L22.63-7.03L26.17-7.03L26.17-7.87ZM29.59-7.03L29.59 0L30.60 0L30.60-7.03L32.98-7.03L32.98-7.87L27.22-7.87L27.22-7.03Z"
                            transform="translate(-0.504, 8.016)"></path>
                    </g>
                </g>
            </g>
        </g>
    </g>
    <defs v-gra="od"></defs>
</svg>